<svg width="102" height="102" viewBox="0 0 102 102" fill="none" xmlns="http://www.w3.org/2000/svg">
<g filter="url(#filter0_f_639_14099)">
<circle cx="51" cy="51" r="11" fill="#EF4444"/>
</g>
<circle cx="51.7842" cy="40.7842" r="30.7842" fill="#FEE2E2"/>
<path d="M44.661 52.6536C44.0082 52.6536 43.4495 52.4214 42.985 51.9569C42.5198 51.4916 42.2871 50.9326 42.2871 50.2797V38.4102C42.2871 37.7574 42.5198 37.1983 42.985 36.7331C43.4495 36.2686 44.0082 36.0363 44.661 36.0363H45.848V33.6624C45.848 32.0205 46.4268 30.6207 47.5845 29.463C48.7414 28.3061 50.1408 27.7277 51.7827 27.7277C53.4247 27.7277 54.8245 28.3061 55.9822 29.463C57.139 30.6207 57.7175 32.0205 57.7175 33.6624V36.0363H58.9044C59.5573 36.0363 60.1163 36.2686 60.5816 36.7331C61.0461 37.1983 61.2783 37.7574 61.2783 38.4102V50.2797C61.2783 50.9326 61.0461 51.4916 60.5816 51.9569C60.1163 52.4214 59.5573 52.6536 58.9044 52.6536H44.661ZM51.7827 46.7189C52.4355 46.7189 52.9946 46.4866 53.4599 46.0221C53.9244 45.5569 54.1566 44.9978 54.1566 44.345C54.1566 43.6922 53.9244 43.1331 53.4599 42.6678C52.9946 42.2033 52.4355 41.9711 51.7827 41.9711C51.1299 41.9711 50.5712 42.2033 50.1067 42.6678C49.6415 43.1331 49.4088 43.6922 49.4088 44.345C49.4088 44.9978 49.6415 45.5569 50.1067 46.0221C50.5712 46.4866 51.1299 46.7189 51.7827 46.7189ZM48.2219 36.0363H55.3436V33.6624C55.3436 32.6733 54.9974 31.8325 54.305 31.1401C53.6126 30.4478 52.7718 30.1016 51.7827 30.1016C50.7936 30.1016 49.9528 30.4478 49.2604 31.1401C48.5681 31.8325 48.2219 32.6733 48.2219 33.6624V36.0363Z" fill="#EF4444"/>
<defs>
<filter id="filter0_f_639_14099" x="0" y="0" width="102" height="102" filterUnits="userSpaceOnUse" color-interpolation-filters="sRGB">
<feFlood flood-opacity="0" result="BackgroundImageFix"/>
<feBlend mode="normal" in="SourceGraphic" in2="BackgroundImageFix" result="shape"/>
<feGaussianBlur stdDeviation="20" result="effect1_foregroundBlur_639_14099"/>
</filter>
</defs>
</svg>
