<svg width="103" height="102" viewBox="0 0 103 102" fill="none" xmlns="http://www.w3.org/2000/svg">
<g filter="url(#filter0_f_639_14105)">
<circle cx="51.5566" cy="51" r="11" fill="#EAB308"/>
</g>
<circle cx="50.7842" cy="40.7842" r="30.7842" fill="#FEF9C3"/>
<g clip-path="url(#clip0_639_14105)">
<path d="M65.8604 30.9565C57.3626 27.9345 48.1253 27.6852 39.4768 30.2443C39.1334 30.3269 38.81 30.4778 38.5261 30.6879C38.2421 30.8981 38.0033 31.1632 37.8239 31.4675C37.6445 31.7718 37.5281 32.1091 37.4818 32.4593C37.4354 32.8095 37.46 33.1655 37.554 33.506C38.0287 35.4052 38.7172 37.588 39.548 39.569C39.5599 39.6165 39.5837 39.5927 39.5837 39.5452C39.465 38.6194 40.1771 37.4443 41.5765 37.017C48.3026 34.879 55.5398 34.9748 62.2069 37.29C63.2277 37.6461 64.3672 37.0883 64.6984 36.0331C65.5292 33.3648 65.8616 31.5487 65.9447 31.0989C65.9565 31.0158 65.8853 30.9802 65.8616 30.9565H65.8604ZM45.3617 36.8283C44.341 37.042 42.9285 37.3743 41.8721 37.7304C39.7617 38.4544 39.8567 41.0277 40.9831 41.8467C41.0662 41.372 41.5765 40.7191 42.1463 40.5055C44.2579 39.6746 46.5238 39.1773 48.8134 38.9755C47.6502 38.5007 46.5107 37.8242 45.3724 36.8283M62.1832 41.9773C59.147 40.5515 55.8557 39.7486 52.504 39.6161C49.1522 39.4835 45.8079 40.0241 42.6685 41.2058C41.6596 41.5856 41.0305 42.8082 41.6596 43.9702C42.7604 45.9593 44.0095 47.8626 45.3962 49.664C45.1944 48.9756 45.5505 47.6948 46.9036 47.2794C50.6401 46.1293 54.5665 46.6147 57.1766 47.6711C57.9126 47.9678 58.9571 47.7898 59.5387 46.9115C60.5384 45.3778 61.4452 43.7856 62.2544 42.1435C62.29 42.0723 62.2544 42.0129 62.1832 41.9773ZM56.1214 51.1952C55.0275 50.6418 54.0267 49.921 53.1553 49.0587C52.7517 48.6551 52.1582 48.0747 51.5291 47.3862C50.106 47.3862 48.7184 47.5287 47.2359 48.0035C45.8591 48.4308 45.7285 50.0213 46.3338 50.851C47.3546 52.121 48.0668 52.8094 49.2051 53.9833C49.8088 54.5763 50.6199 54.9105 51.4662 54.9149C52.3124 54.9194 53.127 54.5937 53.7369 54.0071C54.5818 53.1614 55.3969 52.2864 56.1808 51.3839C56.2401 51.3245 56.2164 51.2189 56.1214 51.1952Z" fill="#EAB308"/>
</g>
<defs>
<filter id="filter0_f_639_14105" x="0.556641" y="0" width="102" height="102" filterUnits="userSpaceOnUse" color-interpolation-filters="sRGB">
<feFlood flood-opacity="0" result="BackgroundImageFix"/>
<feBlend mode="normal" in="SourceGraphic" in2="BackgroundImageFix" result="shape"/>
<feGaussianBlur stdDeviation="20" result="effect1_foregroundBlur_639_14105"/>
</filter>
<clipPath id="clip0_639_14105">
<rect width="28.4868" height="28.4868" fill="white" transform="translate(37.459 27.4597)"/>
</clipPath>
</defs>
</svg>
