<svg width="56" height="51" viewBox="0 0 56 51" fill="none" xmlns="http://www.w3.org/2000/svg">
<rect y="0.913086" width="56" height="50" rx="9.73913" fill="#F9FAFB"/>
<path d="M24 36.2335C23.72 36.2335 23.43 36.1635 23.17 36.0235C22.6 35.7235 22.25 35.1235 22.25 34.4835V33.0635C19.23 32.7535 17.25 30.5335 17.25 27.3535V21.3535C17.25 17.9135 19.56 15.6035 23 15.6035H33C36.44 15.6035 38.75 17.9135 38.75 21.3535V27.3535C38.75 30.7935 36.44 33.1035 33 33.1035H29.23L24.97 35.9435C24.68 36.1335 24.34 36.2335 24 36.2335ZM23 17.0935C20.42 17.0935 18.75 18.7635 18.75 21.3435V27.3436C18.75 29.9236 20.42 31.5936 23 31.5936C23.41 31.5936 23.75 31.9336 23.75 32.3436V34.4736C23.75 34.6036 23.83 34.6635 23.88 34.6935C23.93 34.7235 24.03 34.7535 24.14 34.6835L28.59 31.7236C28.71 31.6436 28.86 31.5936 29.01 31.5936H33.01C35.59 31.5936 37.26 29.9236 37.26 27.3436V21.3435C37.26 18.7635 35.59 17.0935 33.01 17.0935H23Z" fill="#092767"/>
<path d="M27.9998 26.0234C27.5898 26.0234 27.2498 25.6834 27.2498 25.2734V25.0635C27.2498 23.9035 28.0998 23.3335 28.4198 23.1135C28.7898 22.8635 28.9098 22.6935 28.9098 22.4335C28.9098 21.9335 28.4998 21.5234 27.9998 21.5234C27.4998 21.5234 27.0898 21.9335 27.0898 22.4335C27.0898 22.8435 26.7498 23.1835 26.3398 23.1835C25.9298 23.1835 25.5898 22.8435 25.5898 22.4335C25.5898 21.1035 26.6698 20.0234 27.9998 20.0234C29.3298 20.0234 30.4098 21.1035 30.4098 22.4335C30.4098 23.5735 29.5698 24.1435 29.2598 24.3535C28.8698 24.6135 28.7498 24.7835 28.7498 25.0635V25.2734C28.7498 25.6934 28.4098 26.0234 27.9998 26.0234Z" fill="#092767"/>
<path d="M28 28.5137C27.58 28.5137 27.25 28.1737 27.25 27.7637C27.25 27.3537 27.59 27.0137 28 27.0137C28.41 27.0137 28.75 27.3537 28.75 27.7637C28.75 28.1737 28.42 28.5137 28 28.5137Z" fill="#092767"/>
</svg>
