<svg width="1440" height="2252" viewBox="0 0 1440 2252" fill="none" xmlns="http://www.w3.org/2000/svg">
<g clip-path="url(#clip0_274_13440)">
<rect width="1450" height="2337" fill="#F5F5F5"/>
<path d="M627.811 585.708H628.634L633.937 594.305L639.88 589.868L633.48 582.102L633.754 581.363L643.446 578.867L641.251 571.841L631.926 575.539L631.286 575.076L631.926 565H624.611L625.16 575.076L624.611 575.539L615.286 571.748L613 578.774L622.6 581.363L622.783 582.102L616.474 589.868L622.417 594.212L627.811 585.708Z" fill="#FEC0A7"/>
<g opacity="0.5">
<path d="M162.133 543.059H164.37L178.787 566.482L194.944 554.393L177.544 533.237L178.29 531.222L204.639 524.422L198.673 505.282L173.319 515.356L171.579 514.096L173.319 486.645H153.433L154.924 514.096L153.433 515.356L128.079 505.03L121.864 524.17L147.964 531.222L148.461 533.237L131.31 554.393L147.467 566.23L162.133 543.059Z" fill="#C6B5F2"/>
</g>
<path d="M1135.5 192.678H1136.32L1141.62 201.276L1147.57 196.838L1141.17 189.073L1141.44 188.333L1151.13 185.837L1148.94 178.812L1139.61 182.509L1138.97 182.047L1139.61 171.971H1132.3L1132.85 182.047L1132.3 182.509L1122.97 178.719L1120.69 185.745L1130.29 188.333L1130.47 189.073L1124.16 196.838L1130.1 201.183L1135.5 192.678Z" fill="#FEC0A7"/>
<path d="M135.497 222.678H136.32L141.623 231.276L147.566 226.838L141.166 219.073L141.44 218.333L151.131 215.837L148.937 208.812L139.611 212.509L138.971 212.047L139.611 201.971H132.297L132.846 212.047L132.297 212.509L122.971 208.719L120.686 215.745L130.286 218.333L130.469 219.073L124.16 226.838L130.103 231.183L135.497 222.678Z" fill="#CECECF"/>
</g>
<defs>
<clipPath id="clip0_274_13440">
<rect width="1450" height="2252" fill="white"/>
</clipPath>
</defs>
</svg>
