<svg width="60" height="60" viewBox="0 0 60 60" fill="none" xmlns="http://www.w3.org/2000/svg">
<circle cx="30" cy="30" r="30" fill="#9C7FE6"/>
<path d="M30 17.1667L19.5 21.8334V28.8334C19.5 35.3084 23.98 41.3634 30 42.8334C36.02 41.3634 40.5 35.3084 40.5 28.8334V21.8334L30 17.1667ZM30 21.8334C30.9283 21.8334 31.8185 22.2022 32.4749 22.8585C33.1313 23.5149 33.5 24.4052 33.5 25.3334C33.5 26.2617 33.1313 27.1519 32.4749 27.8083C31.8185 28.4647 30.9283 28.8334 30 28.8334C29.0717 28.8334 28.1815 28.4647 27.5251 27.8083C26.8687 27.1519 26.5 26.2617 26.5 25.3334C26.5 24.4052 26.8687 23.5149 27.5251 22.8585C28.1815 22.2022 29.0717 21.8334 30 21.8334ZM35.985 35.8334C34.5714 37.9972 32.4591 39.6113 30 40.4067C27.5409 39.6113 25.4286 37.9972 24.015 35.8334C23.6183 35.2501 23.28 34.6667 23 34.0484C23 32.1234 26.1617 30.5484 30 30.5484C33.8383 30.5484 37 32.0884 37 34.0484C36.72 34.6667 36.3817 35.2501 35.985 35.8334Z" fill="white"/>
</svg>
