<svg width="56" height="50" viewBox="0 0 56 50" fill="none" xmlns="http://www.w3.org/2000/svg">
<rect width="56" height="49.913" rx="9.73913" fill="#F9FAFB"/>
<path d="M25 21H27V19H25M26 32C21.59 32 18 28.41 18 24C18 19.59 21.59 16 26 16C30.41 16 34 19.59 34 24C34 28.41 30.41 32 26 32ZM26 14C24.6868 14 23.3864 14.2587 22.1732 14.7612C20.9599 15.2638 19.8575 16.0003 18.9289 16.9289C17.0536 18.8043 16 21.3478 16 24C16 26.6522 17.0536 29.1957 18.9289 31.0711C19.8575 31.9997 20.9599 32.7362 22.1732 33.2388C23.3864 33.7413 24.6868 34 26 34C28.6522 34 31.1957 32.9464 33.0711 31.0711C34.9464 29.1957 36 26.6522 36 24C36 22.6868 35.7413 21.3864 35.2388 20.1732C34.7362 18.9599 33.9997 17.8575 33.0711 16.9289C32.1425 16.0003 31.0401 15.2638 29.8268 14.7612C28.6136 14.2587 27.3132 14 26 14ZM25 29H27V23H25V29Z" fill="#092767"/>
</svg>
