<svg width="30" height="30" viewBox="0 0 30 30" fill="none" xmlns="http://www.w3.org/2000/svg">
<g clip-path="url(#clip0_47_13086)">
<path d="M29.5 15C29.5 23.0081 23.0081 29.5 15 29.5C6.99187 29.5 0.5 23.0081 0.5 15C0.5 6.99187 6.99187 0.5 15 0.5C23.0081 0.5 29.5 6.99187 29.5 15Z" stroke="white"/>
<path d="M19.8767 4.60449H16.5539C14.582 4.60449 12.3886 5.43385 12.3886 8.2922C12.3983 9.28816 12.3886 10.242 12.3886 11.3155H10.1074V14.9456H12.4592V25.396H16.7808V14.8766H19.6332L19.8913 11.3053H16.7064C16.7064 11.3053 16.7135 9.71661 16.7064 9.25526C16.7064 8.1257 17.8817 8.19038 17.9524 8.19038C18.5117 8.19038 19.5992 8.19201 19.8784 8.19038V4.60449H19.8767Z" fill="white"/>
</g>
<defs>
<clipPath id="clip0_47_13086">
<rect width="30" height="30" fill="white"/>
</clipPath>
</defs>
</svg>
