<svg width="477" height="481" viewBox="0 0 477 481" fill="none" xmlns="http://www.w3.org/2000/svg">
<g clip-path="url(#clip0_236_13574)">
<path d="M2.81693 57.3066C4.37268 57.3066 5.63386 56.0448 5.63386 54.4883C5.63386 52.9317 4.37268 51.6699 2.81693 51.6699C1.26118 51.6699 0 52.9317 0 54.4883C0 56.0448 1.26118 57.3066 2.81693 57.3066Z" fill="#092767"/>
<path d="M18.7793 57.3066C20.3351 57.3066 21.5963 56.0448 21.5963 54.4883C21.5963 52.9317 20.3351 51.6699 18.7793 51.6699C17.2236 51.6699 15.9624 52.9317 15.9624 54.4883C15.9624 56.0448 17.2236 57.3066 18.7793 57.3066Z" fill="#092767"/>
<path d="M34.7422 57.3066C36.298 57.3066 37.5592 56.0448 37.5592 54.4883C37.5592 52.9317 36.298 51.6699 34.7422 51.6699C33.1865 51.6699 31.9253 52.9317 31.9253 54.4883C31.9253 56.0448 33.1865 57.3066 34.7422 57.3066Z" fill="#092767"/>
<path d="M50.7046 57.3066C52.2604 57.3066 53.5216 56.0448 53.5216 54.4883C53.5216 52.9317 52.2604 51.6699 50.7046 51.6699C49.1489 51.6699 47.8877 52.9317 47.8877 54.4883C47.8877 56.0448 49.1489 57.3066 50.7046 57.3066Z" fill="#092767"/>
<path d="M66.6675 57.3066C68.2233 57.3066 69.4844 56.0448 69.4844 54.4883C69.4844 52.9317 68.2233 51.6699 66.6675 51.6699C65.1118 51.6699 63.8506 52.9317 63.8506 54.4883C63.8506 56.0448 65.1118 57.3066 66.6675 57.3066Z" fill="#092767"/>
<path d="M2.81693 77.0352C4.37268 77.0352 5.63386 75.7733 5.63386 74.2168C5.63386 72.6603 4.37268 71.3984 2.81693 71.3984C1.26118 71.3984 0 72.6603 0 74.2168C0 75.7733 1.26118 77.0352 2.81693 77.0352Z" fill="#092767"/>
<path d="M18.7793 77.0352C20.3351 77.0352 21.5963 75.7733 21.5963 74.2168C21.5963 72.6603 20.3351 71.3984 18.7793 71.3984C17.2236 71.3984 15.9624 72.6603 15.9624 74.2168C15.9624 75.7733 17.2236 77.0352 18.7793 77.0352Z" fill="#092767"/>
<path d="M34.7422 77.0352C36.298 77.0352 37.5592 75.7733 37.5592 74.2168C37.5592 72.6603 36.298 71.3984 34.7422 71.3984C33.1865 71.3984 31.9253 72.6603 31.9253 74.2168C31.9253 75.7733 33.1865 77.0352 34.7422 77.0352Z" fill="#092767"/>
<path d="M50.7046 77.0352C52.2604 77.0352 53.5216 75.7733 53.5216 74.2168C53.5216 72.6603 52.2604 71.3984 50.7046 71.3984C49.1489 71.3984 47.8877 72.6603 47.8877 74.2168C47.8877 75.7733 49.1489 77.0352 50.7046 77.0352Z" fill="#092767"/>
<path d="M66.6675 77.0352C68.2233 77.0352 69.4844 75.7733 69.4844 74.2168C69.4844 72.6603 68.2233 71.3984 66.6675 71.3984C65.1118 71.3984 63.8506 72.6603 63.8506 74.2168C63.8506 75.7733 65.1118 77.0352 66.6675 77.0352Z" fill="#092767"/>
<path d="M2.81693 96.7637C4.37268 96.7637 5.63386 95.5018 5.63386 93.9453C5.63386 92.3888 4.37268 91.127 2.81693 91.127C1.26118 91.127 0 92.3888 0 93.9453C0 95.5018 1.26118 96.7637 2.81693 96.7637Z" fill="#092767"/>
<path d="M18.7793 96.7637C20.3351 96.7637 21.5963 95.5018 21.5963 93.9453C21.5963 92.3888 20.3351 91.127 18.7793 91.127C17.2236 91.127 15.9624 92.3888 15.9624 93.9453C15.9624 95.5018 17.2236 96.7637 18.7793 96.7637Z" fill="#092767"/>
<path d="M34.7422 96.7637C36.298 96.7637 37.5592 95.5018 37.5592 93.9453C37.5592 92.3888 36.298 91.127 34.7422 91.127C33.1865 91.127 31.9253 92.3888 31.9253 93.9453C31.9253 95.5018 33.1865 96.7637 34.7422 96.7637Z" fill="#092767"/>
<path d="M50.7046 96.7637C52.2604 96.7637 53.5216 95.5018 53.5216 93.9453C53.5216 92.3888 52.2604 91.127 50.7046 91.127C49.1489 91.127 47.8877 92.3888 47.8877 93.9453C47.8877 95.5018 49.1489 96.7637 50.7046 96.7637Z" fill="#092767"/>
<path d="M66.6675 96.7637C68.2233 96.7637 69.4844 95.5018 69.4844 93.9453C69.4844 92.3888 68.2233 91.127 66.6675 91.127C65.1118 91.127 63.8506 92.3888 63.8506 93.9453C63.8506 95.5018 65.1118 96.7637 66.6675 96.7637Z" fill="#092767"/>
<path d="M2.81693 116.492C4.37268 116.492 5.63386 115.23 5.63386 113.674C5.63386 112.117 4.37268 110.855 2.81693 110.855C1.26118 110.855 0 112.117 0 113.674C0 115.23 1.26118 116.492 2.81693 116.492Z" fill="#092767"/>
<path d="M18.7793 116.492C20.3351 116.492 21.5963 115.23 21.5963 113.674C21.5963 112.117 20.3351 110.855 18.7793 110.855C17.2236 110.855 15.9624 112.117 15.9624 113.674C15.9624 115.23 17.2236 116.492 18.7793 116.492Z" fill="#092767"/>
<path d="M34.7422 116.492C36.298 116.492 37.5592 115.23 37.5592 113.674C37.5592 112.117 36.298 110.855 34.7422 110.855C33.1865 110.855 31.9253 112.117 31.9253 113.674C31.9253 115.23 33.1865 116.492 34.7422 116.492Z" fill="#092767"/>
<path d="M50.7046 116.492C52.2604 116.492 53.5216 115.23 53.5216 113.674C53.5216 112.117 52.2604 110.855 50.7046 110.855C49.1489 110.855 47.8877 112.117 47.8877 113.674C47.8877 115.23 49.1489 116.492 50.7046 116.492Z" fill="#092767"/>
<path d="M66.6675 116.492C68.2233 116.492 69.4844 115.23 69.4844 113.674C69.4844 112.117 68.2233 110.855 66.6675 110.855C65.1118 110.855 63.8506 112.117 63.8506 113.674C63.8506 115.23 65.1118 116.492 66.6675 116.492Z" fill="#092767"/>
<mask id="mask0_236_13574" style="mask-type:luminance" maskUnits="userSpaceOnUse" x="34" y="0" width="443" height="481">
<path d="M477 0H34.7422V481H477V0Z" fill="white"/>
</mask>
<g mask="url(#mask0_236_13574)">
<path d="M336.154 0H175.589C97.8013 0 34.7422 63.0911 34.7422 140.918V312.838C34.7422 390.665 97.8013 453.756 175.589 453.756H336.154C413.941 453.756 477 390.665 477 312.838V140.918C477 63.0911 413.941 0 336.154 0Z" fill="#739BF2"/>
<g filter="url(#filter0_d_236_13574)">
<mask id="mask1_236_13574" style="mask-type:luminance" maskUnits="userSpaceOnUse" x="97" y="103" width="319" height="454">
<path d="M400.004 103.34H112.677C104.38 103.34 97.6538 110.07 97.6538 118.371V541.125C97.6538 549.427 104.38 556.156 112.677 556.156H400.004C408.301 556.156 415.028 549.427 415.028 541.125V118.371C415.028 110.07 408.301 103.34 400.004 103.34Z" fill="white"/>
</mask>
<g mask="url(#mask1_236_13574)">
<path d="M415.028 103.34H97.6538V556.156H415.028V103.34Z" fill="white"/>
<path d="M394.716 178.668H117.966C114.694 178.668 112.042 181.321 112.042 184.593V294.623C112.042 297.895 114.694 300.548 117.966 300.548H394.716C397.988 300.548 400.64 297.895 400.64 294.623V184.593C400.64 181.321 397.988 178.668 394.716 178.668Z" stroke="#F2F2F2" stroke-width="2"/>
<path d="M125.549 208.292V201.69H128.149C128.832 201.69 129.364 201.845 129.743 202.157C130.129 202.468 130.323 202.902 130.323 203.457C130.323 203.802 130.251 204.083 130.109 204.3C129.973 204.517 129.781 204.68 129.53 204.788C129.279 204.896 128.985 204.967 128.647 205.001L128.667 204.94C128.917 204.954 129.155 204.988 129.378 205.041C129.601 205.089 129.798 205.167 129.967 205.275C130.142 205.383 130.281 205.533 130.383 205.723C130.485 205.911 130.536 206.156 130.536 206.453C130.536 206.853 130.447 207.184 130.271 207.448C130.095 207.713 129.848 207.916 129.53 208.058C129.218 208.193 128.86 208.271 128.453 208.292H125.549ZM126.361 207.53H128.25C128.71 207.53 129.07 207.445 129.327 207.276C129.591 207.1 129.723 206.825 129.723 206.453C129.723 206.156 129.638 205.932 129.469 205.783C129.307 205.634 129.096 205.536 128.839 205.489C128.582 205.434 128.318 205.407 128.047 205.407H126.361V207.53ZM126.361 204.646H128.047C128.508 204.646 128.866 204.547 129.124 204.351C129.387 204.148 129.52 203.861 129.52 203.488C129.52 203.122 129.387 202.858 129.124 202.696C128.866 202.533 128.541 202.451 128.149 202.451H126.361V204.646ZM133.859 208.393C133.425 208.393 133.019 208.288 132.64 208.079C132.261 207.868 131.953 207.568 131.716 207.175C131.485 206.775 131.37 206.304 131.37 205.763C131.37 205.221 131.485 204.754 131.716 204.361C131.953 203.962 132.261 203.654 132.64 203.437C133.019 203.22 133.425 203.112 133.859 203.112C134.292 203.112 134.694 203.22 135.067 203.437C135.447 203.654 135.751 203.962 135.981 204.361C136.211 204.754 136.326 205.221 136.326 205.763C136.326 206.304 136.211 206.775 135.981 207.175C135.751 207.568 135.447 207.868 135.067 208.079C134.694 208.288 134.292 208.393 133.859 208.393ZM133.859 207.631C134.143 207.631 134.41 207.56 134.661 207.418C134.911 207.276 135.114 207.066 135.27 206.789C135.433 206.504 135.514 206.162 135.514 205.763C135.514 205.364 135.433 205.024 135.27 204.747C135.114 204.463 134.911 204.246 134.661 204.097C134.41 203.948 134.143 203.874 133.859 203.874C133.574 203.874 133.303 203.948 133.046 204.097C132.796 204.239 132.589 204.452 132.427 204.737C132.264 205.014 132.183 205.356 132.183 205.763C132.183 206.162 132.261 206.504 132.417 206.789C132.579 207.066 132.788 207.276 133.046 207.418C133.303 207.56 133.574 207.631 133.859 207.631ZM137.357 203.213H138.17V208.292H137.357V203.213ZM139.795 203.975C139.449 203.975 139.158 204.063 138.922 204.239C138.692 204.408 138.509 204.619 138.373 204.869C138.245 205.113 138.16 205.35 138.119 205.58L138.11 204.991C138.11 204.93 138.123 204.828 138.15 204.686C138.177 204.544 138.228 204.385 138.302 204.209C138.376 204.026 138.475 203.853 138.597 203.69C138.725 203.521 138.888 203.382 139.084 203.274C139.28 203.166 139.517 203.112 139.795 203.112V203.975ZM140.71 203.213H141.523V208.292H140.71V203.213ZM143.147 203.975C142.802 203.975 142.511 204.063 142.274 204.239C142.044 204.408 141.861 204.619 141.726 204.869C141.597 205.113 141.512 205.35 141.472 205.58L141.462 204.991C141.462 204.93 141.475 204.828 141.502 204.686C141.529 204.544 141.58 204.385 141.654 204.209C141.729 204.026 141.827 203.853 141.949 203.69C142.078 203.521 142.24 203.382 142.436 203.274C142.633 203.166 142.87 203.112 143.147 203.112V203.975ZM146.265 208.393C145.833 208.393 145.426 208.288 145.048 208.079C144.668 207.868 144.36 207.568 144.123 207.175C143.893 206.775 143.778 206.304 143.778 205.763C143.778 205.221 143.893 204.754 144.123 204.361C144.36 203.962 144.668 203.654 145.048 203.437C145.426 203.22 145.833 203.112 146.265 203.112C146.699 203.112 147.102 203.22 147.475 203.437C147.853 203.654 148.158 203.962 148.388 204.361C148.619 204.754 148.734 205.221 148.734 205.763C148.734 206.304 148.619 206.775 148.388 207.175C148.158 207.568 147.853 207.868 147.475 208.079C147.102 208.288 146.699 208.393 146.265 208.393ZM146.265 207.631C146.55 207.631 146.818 207.56 147.068 207.418C147.319 207.276 147.522 207.066 147.678 206.789C147.84 206.504 147.921 206.162 147.921 205.763C147.921 205.364 147.84 205.024 147.678 204.747C147.522 204.463 147.319 204.246 147.068 204.097C146.818 203.948 146.55 203.874 146.265 203.874C145.982 203.874 145.711 203.948 145.453 204.097C145.203 204.239 144.996 204.452 144.834 204.737C144.671 205.014 144.59 205.356 144.59 205.763C144.59 206.162 144.668 206.504 144.824 206.789C144.987 207.066 145.196 207.276 145.453 207.418C145.711 207.56 145.982 207.631 146.265 207.631ZM154.714 207.551L154.512 207.54L155.699 203.213H156.583L155.029 208.292H154.267L152.764 203.843H152.968L151.465 208.292H150.703L149.159 203.213H150.043L151.211 207.54L151.007 207.551L152.378 203.213H153.364L154.714 207.551ZM160.898 206.656H161.659C161.606 206.988 161.483 207.286 161.294 207.551C161.111 207.807 160.867 208.014 160.562 208.17C160.265 208.319 159.919 208.393 159.527 208.393C159.052 208.393 158.626 208.282 158.247 208.058C157.867 207.828 157.567 207.517 157.344 207.124C157.127 206.724 157.018 206.27 157.018 205.763C157.018 205.255 157.123 204.801 157.333 204.402C157.55 204.002 157.844 203.688 158.217 203.457C158.589 203.227 159.008 203.112 159.476 203.112C159.97 203.112 160.387 203.224 160.725 203.447C161.07 203.663 161.324 203.985 161.487 204.412C161.656 204.832 161.724 205.35 161.69 205.966H157.831C157.865 206.297 157.956 206.589 158.105 206.84C158.253 207.089 158.451 207.286 158.694 207.429C158.938 207.564 159.215 207.631 159.527 207.631C159.872 207.631 160.163 207.543 160.4 207.367C160.644 207.184 160.809 206.948 160.898 206.656ZM159.506 203.874C159.086 203.874 158.734 203.996 158.451 204.239C158.166 204.483 157.976 204.815 157.882 205.235H160.857C160.83 204.788 160.684 204.45 160.421 204.219C160.163 203.988 159.858 203.874 159.506 203.874ZM164.657 208.393C164.251 208.393 163.879 208.282 163.54 208.058C163.208 207.828 162.945 207.517 162.747 207.124C162.551 206.724 162.453 206.27 162.453 205.763C162.453 205.255 162.548 204.801 162.738 204.402C162.927 204.002 163.188 203.688 163.519 203.457C163.852 203.227 164.231 203.112 164.657 203.112C165.037 203.112 165.345 203.183 165.581 203.325C165.825 203.46 166.011 203.65 166.14 203.894C166.268 204.138 166.357 204.419 166.404 204.737C166.458 205.056 166.485 205.397 166.485 205.763C166.485 206.02 166.458 206.301 166.404 206.606C166.349 206.903 166.255 207.192 166.119 207.469C165.991 207.74 165.808 207.963 165.571 208.14C165.334 208.309 165.029 208.393 164.657 208.393ZM164.86 207.621C165.206 207.621 165.49 207.537 165.714 207.367C165.944 207.198 166.113 206.975 166.221 206.697C166.33 206.413 166.384 206.101 166.384 205.763C166.384 205.39 166.326 205.065 166.211 204.788C166.102 204.503 165.933 204.283 165.703 204.127C165.48 203.965 165.199 203.884 164.86 203.884C164.352 203.884 163.96 204.063 163.682 204.422C163.405 204.775 163.266 205.221 163.266 205.763C163.266 206.122 163.333 206.443 163.468 206.728C163.611 207.005 163.801 207.226 164.037 207.388C164.282 207.543 164.556 207.621 164.86 207.621ZM166.384 201.182H167.196V208.292H166.454C166.441 208.143 166.424 207.967 166.404 207.764C166.391 207.56 166.384 207.398 166.384 207.276V201.182ZM171.684 206.565V205.803H174.853V206.565H171.684ZM170.344 208.292L172.853 201.69H173.705L176.234 208.292H175.361L173.157 202.32H173.401L171.197 208.292H170.344ZM177.099 203.213H177.911V208.292H177.099V203.213ZM179.658 203.112C179.929 203.112 180.173 203.152 180.389 203.234C180.606 203.315 180.789 203.433 180.937 203.589C181.086 203.745 181.202 203.935 181.283 204.158C181.364 204.374 181.405 204.621 181.405 204.9V208.292H180.593V205.102C180.593 204.71 180.501 204.416 180.318 204.219C180.135 204.022 179.861 203.924 179.496 203.924C179.218 203.924 178.961 203.996 178.724 204.138C178.486 204.28 178.29 204.476 178.134 204.727C177.986 204.971 177.894 205.255 177.86 205.58L177.85 204.991C177.884 204.706 177.952 204.45 178.054 204.219C178.162 203.988 178.294 203.792 178.45 203.629C178.612 203.46 178.794 203.332 178.998 203.244C179.208 203.156 179.428 203.112 179.658 203.112ZM183.071 203.112C183.341 203.112 183.585 203.152 183.802 203.234C184.019 203.315 184.201 203.433 184.35 203.589C184.499 203.745 184.614 203.935 184.696 204.158C184.777 204.374 184.817 204.621 184.817 204.9V208.292H184.005V205.102C184.005 204.71 183.914 204.416 183.731 204.219C183.548 204.022 183.273 203.924 182.908 203.924C182.63 203.924 182.373 203.996 182.136 204.138C181.899 204.28 181.702 204.476 181.547 204.727C181.398 204.971 181.306 205.255 181.272 205.58L181.263 204.991C181.297 204.706 181.364 204.45 181.466 204.219C181.574 203.988 181.706 203.792 181.862 203.629C182.025 203.46 182.207 203.332 182.41 203.244C182.621 203.156 182.84 203.112 183.071 203.112ZM188.338 208.393C187.904 208.393 187.499 208.288 187.119 208.079C186.74 207.868 186.432 207.568 186.195 207.175C185.965 206.775 185.85 206.304 185.85 205.763C185.85 205.221 185.965 204.754 186.195 204.361C186.432 203.962 186.74 203.654 187.119 203.437C187.499 203.22 187.904 203.112 188.338 203.112C188.771 203.112 189.174 203.22 189.547 203.437C189.926 203.654 190.23 203.962 190.46 204.361C190.691 204.754 190.806 205.221 190.806 205.763C190.806 206.304 190.691 206.775 190.46 207.175C190.23 207.568 189.926 207.868 189.547 208.079C189.174 208.288 188.771 208.393 188.338 208.393ZM188.338 207.631C188.623 207.631 188.89 207.56 189.14 207.418C189.391 207.276 189.595 207.066 189.749 206.789C189.912 206.504 189.994 206.162 189.994 205.763C189.994 205.364 189.912 205.024 189.749 204.747C189.595 204.463 189.391 204.246 189.14 204.097C188.89 203.948 188.623 203.874 188.338 203.874C188.054 203.874 187.783 203.948 187.526 204.097C187.275 204.239 187.069 204.452 186.906 204.737C186.744 205.014 186.662 205.356 186.662 205.763C186.662 206.162 186.74 206.504 186.896 206.789C187.058 207.066 187.269 207.276 187.526 207.418C187.783 207.56 188.054 207.631 188.338 207.631ZM196.143 208.292H195.331V203.213H196.143V208.292ZM195.381 205.925L195.392 206.21C195.384 206.291 195.365 206.416 195.331 206.586C195.304 206.755 195.253 206.945 195.179 207.154C195.11 207.357 195.009 207.554 194.873 207.743C194.745 207.933 194.576 208.089 194.365 208.21C194.163 208.332 193.909 208.393 193.604 208.393C193.408 208.393 193.205 208.362 192.995 208.302C192.792 208.248 192.602 208.157 192.426 208.028C192.25 207.893 192.107 207.706 191.999 207.469C191.891 207.232 191.837 206.937 191.837 206.586V203.213H192.649V206.382C192.649 206.687 192.697 206.927 192.792 207.104C192.893 207.273 193.028 207.395 193.197 207.469C193.367 207.543 193.557 207.581 193.766 207.581C194.112 207.581 194.399 207.492 194.629 207.317C194.86 207.141 195.036 206.924 195.158 206.667C195.28 206.409 195.354 206.162 195.381 205.925ZM197.46 203.213H198.273V208.292H197.46V203.213ZM200.019 203.112C200.29 203.112 200.534 203.152 200.751 203.234C200.967 203.315 201.15 203.433 201.299 203.589C201.448 203.745 201.563 203.935 201.644 204.158C201.725 204.374 201.766 204.621 201.766 204.9V208.292H200.953V205.102C200.953 204.71 200.862 204.416 200.679 204.219C200.496 204.022 200.222 203.924 199.857 203.924C199.579 203.924 199.321 203.996 199.085 204.138C198.848 204.28 198.652 204.476 198.496 204.727C198.347 204.971 198.256 205.255 198.222 205.58L198.212 204.991C198.245 204.706 198.313 204.45 198.414 204.219C198.523 203.988 198.655 203.792 198.811 203.629C198.973 203.46 199.156 203.332 199.359 203.244C199.569 203.156 199.789 203.112 200.019 203.112ZM202.728 203.213H205.714V203.975H202.728V203.213ZM203.815 201.893H204.628V208.292H203.815V201.893Z" fill="#808080"/>
<path d="M127.411 230.298V223.645L127.343 221.682H127.478L128.9 223.679L134.012 230.298H135.976V218.956H134.148V225.659L134.232 227.707H134.097L132.624 225.592L127.546 218.956H125.583V230.298H127.411ZM145.417 230.467C148.616 230.467 150.325 228.961 150.325 226.607C150.325 224.272 148.768 223.002 146.127 223.002C144.248 223.002 142.928 223.696 142.353 224.323L142.217 224.306L142.624 220.598H149.784V218.956H141.032L140.423 225.186L142.116 225.304V225.27L142.234 225.304C142.878 224.728 143.826 224.458 145.45 224.458C147.515 224.458 148.413 225.05 148.413 226.607C148.413 228.199 147.481 228.808 145.45 228.808C143.183 228.808 142.167 228.216 142.167 226.878V226.692H140.305V226.878C140.305 229.164 142.099 230.467 145.417 230.467ZM152.071 232.193C153.12 232.193 153.729 231.686 153.729 230.637V227.674H151.428V230.298H152.443V230.654C152.443 231.009 152.308 231.076 152.02 231.076H151.462V232.193H152.071ZM160.201 230.467C163.62 230.467 165.651 228.233 165.651 224.627C165.651 221.038 163.62 218.786 160.201 218.786C156.781 218.786 154.75 221.038 154.75 224.627C154.75 228.233 156.781 230.467 160.201 230.467ZM160.201 228.706C157.78 228.706 156.68 227.454 156.68 224.627C156.68 221.8 157.78 220.547 160.201 220.547C162.62 220.547 163.704 221.8 163.704 224.627C163.704 227.454 162.62 228.706 160.201 228.706ZM172.118 230.467C175.538 230.467 177.569 228.233 177.569 224.627C177.569 221.038 175.538 218.786 172.118 218.786C168.699 218.786 166.668 221.038 166.668 224.627C166.668 228.233 168.699 230.467 172.118 230.467ZM172.118 228.706C169.698 228.706 168.598 227.454 168.598 224.627C168.598 221.8 169.698 220.547 172.118 220.547C174.539 220.547 175.622 221.8 175.622 224.627C175.622 227.454 174.539 228.706 172.118 228.706ZM184.037 230.467C187.455 230.467 189.486 228.233 189.486 224.627C189.486 221.038 187.455 218.786 184.037 218.786C180.617 218.786 178.586 221.038 178.586 224.627C178.586 228.233 180.617 230.467 184.037 230.467ZM184.037 228.706C181.616 228.706 180.515 227.454 180.515 224.627C180.515 221.8 181.616 220.547 184.037 220.547C186.456 220.547 187.54 221.8 187.54 224.627C187.54 227.454 186.456 228.706 184.037 228.706ZM192.806 230.298V227.674H190.504V230.298H192.806ZM199.277 230.467C202.696 230.467 204.727 228.233 204.727 224.627C204.727 221.038 202.696 218.786 199.277 218.786C195.857 218.786 193.826 221.038 193.826 224.627C193.826 228.233 195.857 230.467 199.277 230.467ZM199.277 228.706C196.856 228.706 195.756 227.454 195.756 224.627C195.756 221.8 196.856 220.547 199.277 220.547C201.698 220.547 202.78 221.8 202.78 224.627C202.78 227.454 201.698 228.706 199.277 228.706ZM211.195 230.467C214.614 230.467 216.645 228.233 216.645 224.627C216.645 221.038 214.614 218.786 211.195 218.786C207.776 218.786 205.745 221.038 205.745 224.627C205.745 228.233 207.776 230.467 211.195 230.467ZM211.195 228.706C208.775 228.706 207.674 227.454 207.674 224.627C207.674 221.8 208.775 220.547 211.195 220.547C213.615 220.547 214.699 221.8 214.699 224.627C214.699 227.454 213.615 228.706 211.195 228.706Z" fill="#041004"/>
<path d="M387.945 257.382H124.737V259.921H387.945V257.382Z" fill="#E6E6E6"/>
<path d="M261.842 257.382H124.737V259.921H261.842V257.382Z" fill="#228B22"/>
<path d="M256.341 264.153C259.378 264.153 261.841 261.69 261.841 258.651C261.841 255.613 259.378 253.15 256.341 253.15C253.302 253.15 250.839 255.613 250.839 258.651C250.839 261.69 253.302 264.153 256.341 264.153Z" fill="#228B22"/>
<path d="M126.34 278.541V274.55L126.3 273.372H126.382L127.234 274.57L130.302 278.541H131.479V271.737H130.383V275.759L130.433 276.987H130.353L129.469 275.718L126.422 271.737H125.244V278.541H126.34ZM136.586 278.541V271.737H135.621C135.326 272.387 134.9 272.579 134.148 272.579H133.823V273.362H135.489V278.541H136.586ZM140.669 278.644C142.72 278.644 143.939 277.303 143.939 275.139C143.939 272.986 142.72 271.635 140.669 271.635C138.618 271.635 137.399 272.986 137.399 275.139C137.399 277.303 138.618 278.644 140.669 278.644ZM140.669 277.587C139.217 277.587 138.556 276.835 138.556 275.139C138.556 273.443 139.217 272.691 140.669 272.691C142.121 272.691 142.772 273.443 142.772 275.139C142.772 276.835 142.121 277.587 140.669 277.587ZM147.819 278.644C149.871 278.644 151.09 277.303 151.09 275.139C151.09 272.986 149.871 271.635 147.819 271.635C145.768 271.635 144.549 272.986 144.549 275.139C144.549 277.303 145.768 278.644 147.819 278.644ZM147.819 277.587C146.367 277.587 145.707 276.835 145.707 275.139C145.707 273.443 146.367 272.691 147.819 272.691C149.272 272.691 149.922 273.443 149.922 275.139C149.922 276.835 149.272 277.587 147.819 277.587ZM154.971 278.644C157.022 278.644 158.24 277.303 158.24 275.139C158.24 272.986 157.022 271.635 154.971 271.635C152.919 271.635 151.7 272.986 151.7 275.139C151.7 277.303 152.919 278.644 154.971 278.644ZM154.971 277.587C153.518 277.587 152.858 276.835 152.858 275.139C152.858 273.443 153.518 272.691 154.971 272.691C156.422 272.691 157.073 273.443 157.073 275.139C157.073 276.835 156.422 277.587 154.971 277.587Z" fill="black"/>
<path d="M343.002 278.541V274.55L342.962 273.372H343.042L343.896 274.57L346.963 278.541H348.141V271.737H347.044V275.759L347.095 276.987H347.013L346.13 275.718L343.084 271.737H341.905V278.541H343.002ZM353.806 278.644C355.725 278.644 356.75 277.739 356.75 276.328C356.75 274.926 355.816 274.164 354.232 274.164C353.104 274.164 352.313 274.58 351.967 274.956L351.886 274.946L352.13 272.722H356.426V271.737H351.175L350.81 275.474L351.826 275.545V275.526L351.896 275.545C352.282 275.2 352.851 275.038 353.826 275.038C355.065 275.038 355.603 275.393 355.603 276.328C355.603 277.282 355.044 277.648 353.826 277.648C352.465 277.648 351.856 277.293 351.856 276.49V276.379H350.738V276.49C350.738 277.861 351.815 278.644 353.806 278.644ZM360.683 278.644C362.735 278.644 363.953 277.303 363.953 275.139C363.953 272.986 362.735 271.635 360.683 271.635C358.631 271.635 357.412 272.986 357.412 275.139C357.412 277.303 358.631 278.644 360.683 278.644ZM360.683 277.587C359.23 277.587 358.57 276.835 358.57 275.139C358.57 273.443 359.23 272.691 360.683 272.691C362.136 272.691 362.785 273.443 362.785 275.139C362.785 276.835 362.136 277.587 360.683 277.587ZM364.95 279.679C365.579 279.679 365.944 279.374 365.944 278.745V276.968H364.564V278.541H365.172V278.755C365.172 278.969 365.091 279.009 364.919 279.009H364.583V279.679H364.95ZM369.827 278.644C371.878 278.644 373.097 277.303 373.097 275.139C373.097 272.986 371.878 271.635 369.827 271.635C367.775 271.635 366.556 272.986 366.556 275.139C366.556 277.303 367.775 278.644 369.827 278.644ZM369.827 277.587C368.374 277.587 367.714 276.835 367.714 275.139C367.714 273.443 368.374 272.691 369.827 272.691C371.279 272.691 371.929 273.443 371.929 275.139C371.929 276.835 371.279 277.587 369.827 277.587ZM376.977 278.644C379.029 278.644 380.247 277.303 380.247 275.139C380.247 272.986 379.029 271.635 376.977 271.635C374.925 271.635 373.707 272.986 373.707 275.139C373.707 277.303 374.925 278.644 376.977 278.644ZM376.977 277.587C375.525 277.587 374.865 276.835 374.865 275.139C374.865 273.443 375.525 272.691 376.977 272.691C378.43 272.691 379.079 273.443 379.079 275.139C379.079 276.835 378.43 277.587 376.977 277.587ZM384.129 278.644C386.18 278.644 387.399 277.303 387.399 275.139C387.399 272.986 386.18 271.635 384.129 271.635C382.077 271.635 380.859 272.986 380.859 275.139C380.859 277.303 382.077 278.644 384.129 278.644ZM384.129 277.587C382.677 277.587 382.016 276.835 382.016 275.139C382.016 273.443 382.677 272.691 384.129 272.691C385.581 272.691 386.231 273.443 386.231 275.139C386.231 276.835 385.581 277.587 384.129 277.587Z" fill="black"/>
<path d="M394.716 319.168H117.966C114.694 319.168 112.042 321.821 112.042 325.093V435.123C112.042 438.395 114.694 441.048 117.966 441.048H394.716C397.988 441.048 400.64 438.395 400.64 435.123V325.093C400.64 321.821 397.988 319.168 394.716 319.168Z" stroke="#F2F2F2" stroke-width="2"/>
<path d="M125.549 348.792V342.19H128.149C128.832 342.19 129.364 342.345 129.743 342.657C130.129 342.969 130.323 343.402 130.323 343.957C130.323 344.302 130.251 344.584 130.109 344.8C129.973 345.017 129.781 345.179 129.53 345.287C129.279 345.396 128.985 345.467 128.647 345.501L128.667 345.44C128.917 345.454 129.155 345.488 129.378 345.541C129.601 345.589 129.798 345.667 129.967 345.775C130.142 345.883 130.281 346.032 130.383 346.222C130.485 346.412 130.536 346.655 130.536 346.953C130.536 347.352 130.447 347.685 130.271 347.949C130.095 348.213 129.848 348.416 129.53 348.558C129.218 348.693 128.86 348.771 128.453 348.792H125.549ZM126.361 348.03H128.25C128.71 348.03 129.07 347.945 129.327 347.776C129.591 347.599 129.723 347.326 129.723 346.953C129.723 346.655 129.638 346.432 129.469 346.283C129.307 346.134 129.096 346.036 128.839 345.988C128.582 345.934 128.318 345.908 128.047 345.908H126.361V348.03ZM126.361 345.146H128.047C128.508 345.146 128.866 345.047 129.124 344.851C129.387 344.648 129.52 344.36 129.52 343.987C129.52 343.622 129.387 343.358 129.124 343.195C128.866 343.033 128.541 342.952 128.149 342.952H126.361V345.146ZM133.859 348.893C133.425 348.893 133.019 348.788 132.64 348.578C132.261 348.368 131.953 348.067 131.716 347.675C131.485 347.274 131.37 346.805 131.37 346.263C131.37 345.721 131.485 345.254 131.716 344.861C131.953 344.462 132.261 344.154 132.64 343.937C133.019 343.72 133.425 343.612 133.859 343.612C134.292 343.612 134.694 343.72 135.067 343.937C135.447 344.154 135.751 344.462 135.981 344.861C136.211 345.254 136.326 345.721 136.326 346.263C136.326 346.805 136.211 347.274 135.981 347.675C135.751 348.067 135.447 348.368 135.067 348.578C134.694 348.788 134.292 348.893 133.859 348.893ZM133.859 348.131C134.143 348.131 134.41 348.061 134.661 347.918C134.911 347.776 135.114 347.566 135.27 347.289C135.433 347.004 135.514 346.662 135.514 346.263C135.514 345.863 135.433 345.524 135.27 345.247C135.114 344.962 134.911 344.746 134.661 344.597C134.41 344.448 134.143 344.373 133.859 344.373C133.574 344.373 133.303 344.448 133.046 344.597C132.796 344.739 132.589 344.952 132.427 345.237C132.264 345.515 132.183 345.857 132.183 346.263C132.183 346.662 132.261 347.004 132.417 347.289C132.579 347.566 132.788 347.776 133.046 347.918C133.303 348.061 133.574 348.131 133.859 348.131ZM137.357 343.713H138.17V348.792H137.357V343.713ZM139.795 344.475C139.449 344.475 139.158 344.563 138.922 344.739C138.692 344.908 138.509 345.118 138.373 345.369C138.245 345.613 138.16 345.849 138.119 346.079L138.11 345.49C138.11 345.429 138.123 345.328 138.15 345.186C138.177 345.044 138.228 344.884 138.302 344.709C138.376 344.526 138.475 344.353 138.597 344.19C138.725 344.021 138.888 343.883 139.084 343.774C139.28 343.666 139.517 343.612 139.795 343.612V344.475ZM140.71 343.713H141.523V348.792H140.71V343.713ZM143.147 344.475C142.802 344.475 142.511 344.563 142.274 344.739C142.044 344.908 141.861 345.118 141.726 345.369C141.597 345.613 141.512 345.849 141.472 346.079L141.462 345.49C141.462 345.429 141.475 345.328 141.502 345.186C141.529 345.044 141.58 344.884 141.654 344.709C141.729 344.526 141.827 344.353 141.949 344.19C142.078 344.021 142.24 343.883 142.436 343.774C142.633 343.666 142.87 343.612 143.147 343.612V344.475ZM146.265 348.893C145.833 348.893 145.426 348.788 145.048 348.578C144.668 348.368 144.36 348.067 144.123 347.675C143.893 347.274 143.778 346.805 143.778 346.263C143.778 345.721 143.893 345.254 144.123 344.861C144.36 344.462 144.668 344.154 145.048 343.937C145.426 343.72 145.833 343.612 146.265 343.612C146.699 343.612 147.102 343.72 147.475 343.937C147.853 344.154 148.158 344.462 148.388 344.861C148.619 345.254 148.734 345.721 148.734 346.263C148.734 346.805 148.619 347.274 148.388 347.675C148.158 348.067 147.853 348.368 147.475 348.578C147.102 348.788 146.699 348.893 146.265 348.893ZM146.265 348.131C146.55 348.131 146.818 348.061 147.068 347.918C147.319 347.776 147.522 347.566 147.678 347.289C147.84 347.004 147.921 346.662 147.921 346.263C147.921 345.863 147.84 345.524 147.678 345.247C147.522 344.962 147.319 344.746 147.068 344.597C146.818 344.448 146.55 344.373 146.265 344.373C145.982 344.373 145.711 344.448 145.453 344.597C145.203 344.739 144.996 344.952 144.834 345.237C144.671 345.515 144.59 345.857 144.59 346.263C144.59 346.662 144.668 347.004 144.824 347.289C144.987 347.566 145.196 347.776 145.453 347.918C145.711 348.061 145.982 348.131 146.265 348.131ZM154.714 348.05L154.512 348.04L155.699 343.713H156.583L155.029 348.792H154.267L152.764 344.343H152.968L151.465 348.792H150.703L149.159 343.713H150.043L151.211 348.04L151.007 348.05L152.378 343.713H153.364L154.714 348.05ZM160.898 347.156H161.659C161.606 347.489 161.483 347.786 161.294 348.05C161.111 348.308 160.867 348.514 160.562 348.67C160.265 348.819 159.919 348.893 159.527 348.893C159.052 348.893 158.626 348.781 158.247 348.558C157.867 348.328 157.567 348.017 157.344 347.624C157.127 347.224 157.018 346.771 157.018 346.263C157.018 345.754 157.123 345.302 157.333 344.901C157.55 344.502 157.844 344.187 158.217 343.957C158.589 343.727 159.008 343.612 159.476 343.612C159.97 343.612 160.387 343.723 160.725 343.947C161.07 344.164 161.324 344.485 161.487 344.912C161.656 345.332 161.724 345.849 161.69 346.466H157.831C157.865 346.797 157.956 347.088 158.105 347.339C158.253 347.59 158.451 347.786 158.694 347.928C158.938 348.064 159.215 348.131 159.527 348.131C159.872 348.131 160.163 348.044 160.4 347.867C160.644 347.685 160.809 347.447 160.898 347.156ZM159.506 344.373C159.086 344.373 158.734 344.496 158.451 344.739C158.166 344.983 157.976 345.315 157.882 345.735H160.857C160.83 345.288 160.684 344.949 160.421 344.719C160.163 344.489 159.858 344.373 159.506 344.373ZM164.657 348.893C164.251 348.893 163.879 348.781 163.54 348.558C163.208 348.328 162.945 348.017 162.747 347.624C162.551 347.224 162.453 346.771 162.453 346.263C162.453 345.754 162.548 345.302 162.738 344.901C162.927 344.502 163.188 344.187 163.519 343.957C163.852 343.727 164.231 343.612 164.657 343.612C165.037 343.612 165.345 343.683 165.581 343.825C165.825 343.96 166.011 344.15 166.14 344.394C166.268 344.637 166.357 344.918 166.404 345.237C166.458 345.555 166.485 345.897 166.485 346.263C166.485 346.52 166.458 346.801 166.404 347.105C166.349 347.403 166.255 347.692 166.119 347.969C165.991 348.24 165.808 348.463 165.571 348.639C165.334 348.809 165.029 348.893 164.657 348.893ZM164.86 348.121C165.206 348.121 165.49 348.036 165.714 347.867C165.944 347.698 166.113 347.475 166.221 347.197C166.33 346.913 166.384 346.601 166.384 346.263C166.384 345.891 166.326 345.566 166.211 345.287C166.102 345.003 165.933 344.783 165.703 344.627C165.48 344.465 165.199 344.384 164.86 344.384C164.352 344.384 163.96 344.563 163.682 344.922C163.405 345.274 163.266 345.721 163.266 346.263C163.266 346.622 163.333 346.943 163.468 347.227C163.611 347.506 163.801 347.725 164.037 347.888C164.282 348.044 164.556 348.121 164.86 348.121ZM166.384 341.682H167.196V348.792H166.454C166.441 348.642 166.424 348.467 166.404 348.264C166.391 348.061 166.384 347.898 166.384 347.776V341.682ZM171.684 347.065V346.303H174.853V347.065H171.684ZM170.344 348.792L172.853 342.19H173.705L176.234 348.792H175.361L173.157 342.82H173.401L171.197 348.792H170.344ZM177.099 343.713H177.911V348.792H177.099V343.713ZM179.658 343.612C179.929 343.612 180.173 343.652 180.389 343.734C180.606 343.814 180.789 343.934 180.937 344.089C181.086 344.245 181.202 344.434 181.283 344.658C181.364 344.874 181.405 345.122 181.405 345.399V348.792H180.593V345.602C180.593 345.21 180.501 344.915 180.318 344.719C180.135 344.523 179.861 344.424 179.496 344.424C179.218 344.424 178.961 344.496 178.724 344.637C178.486 344.78 178.29 344.977 178.134 345.226C177.986 345.471 177.894 345.754 177.86 346.079L177.85 345.49C177.884 345.207 177.952 344.949 178.054 344.719C178.162 344.489 178.294 344.293 178.45 344.13C178.612 343.96 178.794 343.832 178.998 343.744C179.208 343.656 179.428 343.612 179.658 343.612ZM183.071 343.612C183.341 343.612 183.585 343.652 183.802 343.734C184.019 343.814 184.201 343.934 184.35 344.089C184.499 344.245 184.614 344.434 184.696 344.658C184.777 344.874 184.817 345.122 184.817 345.399V348.792H184.005V345.602C184.005 345.21 183.914 344.915 183.731 344.719C183.548 344.523 183.273 344.424 182.908 344.424C182.63 344.424 182.373 344.496 182.136 344.637C181.899 344.78 181.702 344.977 181.547 345.226C181.398 345.471 181.306 345.754 181.272 346.079L181.263 345.49C181.297 345.207 181.364 344.949 181.466 344.719C181.574 344.489 181.706 344.293 181.862 344.13C182.025 343.96 182.207 343.832 182.41 343.744C182.621 343.656 182.84 343.612 183.071 343.612ZM188.338 348.893C187.904 348.893 187.499 348.788 187.119 348.578C186.74 348.368 186.432 348.067 186.195 347.675C185.965 347.274 185.85 346.805 185.85 346.263C185.85 345.721 185.965 345.254 186.195 344.861C186.432 344.462 186.74 344.154 187.119 343.937C187.499 343.72 187.904 343.612 188.338 343.612C188.771 343.612 189.174 343.72 189.547 343.937C189.926 344.154 190.23 344.462 190.46 344.861C190.691 345.254 190.806 345.721 190.806 346.263C190.806 346.805 190.691 347.274 190.46 347.675C190.23 348.067 189.926 348.368 189.547 348.578C189.174 348.788 188.771 348.893 188.338 348.893ZM188.338 348.131C188.623 348.131 188.89 348.061 189.14 347.918C189.391 347.776 189.595 347.566 189.749 347.289C189.912 347.004 189.994 346.662 189.994 346.263C189.994 345.863 189.912 345.524 189.749 345.247C189.595 344.962 189.391 344.746 189.14 344.597C188.89 344.448 188.623 344.373 188.338 344.373C188.054 344.373 187.783 344.448 187.526 344.597C187.275 344.739 187.069 344.952 186.906 345.237C186.744 345.515 186.662 345.857 186.662 346.263C186.662 346.662 186.74 347.004 186.896 347.289C187.058 347.566 187.269 347.776 187.526 347.918C187.783 348.061 188.054 348.131 188.338 348.131ZM196.143 348.792H195.331V343.713H196.143V348.792ZM195.381 346.425L195.392 346.71C195.384 346.791 195.365 346.917 195.331 347.086C195.304 347.255 195.253 347.444 195.179 347.654C195.11 347.857 195.009 348.053 194.873 348.243C194.745 348.433 194.576 348.589 194.365 348.71C194.163 348.832 193.909 348.893 193.604 348.893C193.408 348.893 193.205 348.863 192.995 348.802C192.792 348.748 192.602 348.656 192.426 348.528C192.25 348.392 192.107 348.206 191.999 347.969C191.891 347.732 191.837 347.437 191.837 347.086V343.713H192.649V346.882C192.649 347.187 192.697 347.428 192.792 347.603C192.893 347.772 193.028 347.894 193.197 347.969C193.367 348.044 193.557 348.081 193.766 348.081C194.112 348.081 194.399 347.992 194.629 347.817C194.86 347.641 195.036 347.424 195.158 347.166C195.28 346.909 195.354 346.662 195.381 346.425ZM197.46 343.713H198.273V348.792H197.46V343.713ZM200.019 343.612C200.29 343.612 200.534 343.652 200.751 343.734C200.967 343.814 201.15 343.934 201.299 344.089C201.448 344.245 201.563 344.434 201.644 344.658C201.725 344.874 201.766 345.122 201.766 345.399V348.792H200.953V345.602C200.953 345.21 200.862 344.915 200.679 344.719C200.496 344.523 200.222 344.424 199.857 344.424C199.579 344.424 199.321 344.496 199.085 344.637C198.848 344.78 198.652 344.977 198.496 345.226C198.347 345.471 198.256 345.754 198.222 346.079L198.212 345.49C198.245 345.207 198.313 344.949 198.414 344.719C198.523 344.489 198.655 344.293 198.811 344.13C198.973 343.96 199.156 343.832 199.359 343.744C199.569 343.656 199.789 343.612 200.019 343.612ZM202.728 343.713H205.714V344.475H202.728V343.713ZM203.815 342.393H204.628V348.792H203.815V342.393Z" fill="#808080"/>
<path d="M127.411 370.798V364.145L127.343 362.182H127.478L128.9 364.179L134.012 370.798H135.976V359.456H134.148V366.159L134.232 368.207H134.097L132.624 366.092L127.546 359.456H125.583V370.798H127.411ZM145.417 370.968C148.616 370.968 150.325 369.461 150.325 367.107C150.325 364.772 148.768 363.502 146.127 363.502C144.248 363.502 142.928 364.196 142.353 364.823L142.217 364.806L142.624 361.099H149.784V359.456H141.032L140.423 365.686L142.116 365.804V365.771L142.234 365.804C142.878 365.228 143.826 364.958 145.45 364.958C147.515 364.958 148.413 365.551 148.413 367.107C148.413 368.699 147.481 369.308 145.45 369.308C143.183 369.308 142.167 368.716 142.167 367.379V367.192H140.305V367.379C140.305 369.664 142.099 370.968 145.417 370.968ZM152.071 372.693C153.12 372.693 153.729 372.186 153.729 371.137V368.174H151.428V370.798H152.443V371.154C152.443 371.509 152.308 371.576 152.02 371.576H151.462V372.693H152.071ZM160.201 370.968C163.62 370.968 165.651 368.733 165.651 365.127C165.651 361.538 163.62 359.287 160.201 359.287C156.781 359.287 154.75 361.538 154.75 365.127C154.75 368.733 156.781 370.968 160.201 370.968ZM160.201 369.207C157.78 369.207 156.68 367.954 156.68 365.127C156.68 362.3 157.78 361.048 160.201 361.048C162.62 361.048 163.704 362.3 163.704 365.127C163.704 367.954 162.62 369.207 160.201 369.207ZM172.118 370.968C175.538 370.968 177.569 368.733 177.569 365.127C177.569 361.538 175.538 359.287 172.118 359.287C168.699 359.287 166.668 361.538 166.668 365.127C166.668 368.733 168.699 370.968 172.118 370.968ZM172.118 369.207C169.698 369.207 168.598 367.954 168.598 365.127C168.598 362.3 169.698 361.048 172.118 361.048C174.539 361.048 175.622 362.3 175.622 365.127C175.622 367.954 174.539 369.207 172.118 369.207ZM184.037 370.968C187.455 370.968 189.486 368.733 189.486 365.127C189.486 361.538 187.455 359.287 184.037 359.287C180.617 359.287 178.586 361.538 178.586 365.127C178.586 368.733 180.617 370.968 184.037 370.968ZM184.037 369.207C181.616 369.207 180.515 367.954 180.515 365.127C180.515 362.3 181.616 361.048 184.037 361.048C186.456 361.048 187.54 362.3 187.54 365.127C187.54 367.954 186.456 369.207 184.037 369.207ZM192.806 370.798V368.174H190.504V370.798H192.806ZM199.277 370.968C202.696 370.968 204.727 368.733 204.727 365.127C204.727 361.538 202.696 359.287 199.277 359.287C195.857 359.287 193.826 361.538 193.826 365.127C193.826 368.733 195.857 370.968 199.277 370.968ZM199.277 369.207C196.856 369.207 195.756 367.954 195.756 365.127C195.756 362.3 196.856 361.048 199.277 361.048C201.698 361.048 202.78 362.3 202.78 365.127C202.78 367.954 201.698 369.207 199.277 369.207ZM211.195 370.968C214.614 370.968 216.645 368.733 216.645 365.127C216.645 361.538 214.614 359.287 211.195 359.287C207.776 359.287 205.745 361.538 205.745 365.127C205.745 368.733 207.776 370.968 211.195 370.968ZM211.195 369.207C208.775 369.207 207.674 367.954 207.674 365.127C207.674 362.3 208.775 361.048 211.195 361.048C213.615 361.048 214.699 362.3 214.699 365.127C214.699 367.954 213.615 369.207 211.195 369.207Z" fill="#041004"/>
<path d="M387.945 397.882H124.737V400.421H387.945V397.882Z" fill="#E6E6E6"/>
<path d="M261.842 397.882H124.737V400.421H261.842V397.882Z" fill="#228B22"/>
<path d="M256.341 404.654C259.378 404.654 261.841 402.19 261.841 399.152C261.841 396.113 259.378 393.651 256.341 393.651C253.302 393.651 250.839 396.113 250.839 399.152C250.839 402.19 253.302 404.654 256.341 404.654Z" fill="#228B22"/>
<path d="M126.34 419.042V415.05L126.3 413.872H126.382L127.234 415.07L130.302 419.042H131.479V412.237H130.383V416.259L130.433 417.488H130.353L129.469 416.218L126.422 412.237H125.244V419.042H126.34ZM136.586 419.042V412.237H135.621C135.326 412.887 134.9 413.079 134.148 413.079H133.823V413.862H135.489V419.042H136.586ZM140.669 419.144C142.72 419.144 143.939 417.803 143.939 415.639C143.939 413.486 142.72 412.135 140.669 412.135C138.618 412.135 137.399 413.486 137.399 415.639C137.399 417.803 138.618 419.144 140.669 419.144ZM140.669 418.087C139.217 418.087 138.556 417.335 138.556 415.639C138.556 413.943 139.217 413.191 140.669 413.191C142.121 413.191 142.772 413.943 142.772 415.639C142.772 417.335 142.121 418.087 140.669 418.087ZM147.819 419.144C149.871 419.144 151.09 417.803 151.09 415.639C151.09 413.486 149.871 412.135 147.819 412.135C145.768 412.135 144.549 413.486 144.549 415.639C144.549 417.803 145.768 419.144 147.819 419.144ZM147.819 418.087C146.367 418.087 145.707 417.335 145.707 415.639C145.707 413.943 146.367 413.191 147.819 413.191C149.272 413.191 149.922 413.943 149.922 415.639C149.922 417.335 149.272 418.087 147.819 418.087ZM154.971 419.144C157.022 419.144 158.24 417.803 158.24 415.639C158.24 413.486 157.022 412.135 154.971 412.135C152.919 412.135 151.7 413.486 151.7 415.639C151.7 417.803 152.919 419.144 154.971 419.144ZM154.971 418.087C153.518 418.087 152.858 417.335 152.858 415.639C152.858 413.943 153.518 413.191 154.971 413.191C156.422 413.191 157.073 413.943 157.073 415.639C157.073 417.335 156.422 418.087 154.971 418.087Z" fill="black"/>
<path d="M343.002 419.042V415.05L342.962 413.872H343.042L343.896 415.07L346.963 419.042H348.141V412.237H347.044V416.259L347.095 417.488H347.013L346.13 416.218L343.084 412.237H341.905V419.042H343.002ZM353.806 419.144C355.725 419.144 356.75 418.24 356.75 416.828C356.75 415.426 355.816 414.664 354.232 414.664C353.104 414.664 352.313 415.08 351.967 415.456L351.886 415.446L352.13 413.222H356.426V412.237H351.175L350.81 415.975L351.826 416.045V416.026L351.896 416.045C352.282 415.7 352.851 415.538 353.826 415.538C355.065 415.538 355.603 415.893 355.603 416.828C355.603 417.782 355.044 418.148 353.826 418.148C352.465 418.148 351.856 417.793 351.856 416.99V416.879H350.738V416.99C350.738 418.361 351.815 419.144 353.806 419.144ZM360.683 419.144C362.735 419.144 363.953 417.803 363.953 415.639C363.953 413.486 362.735 412.135 360.683 412.135C358.631 412.135 357.412 413.486 357.412 415.639C357.412 417.803 358.631 419.144 360.683 419.144ZM360.683 418.087C359.23 418.087 358.57 417.335 358.57 415.639C358.57 413.943 359.23 413.191 360.683 413.191C362.136 413.191 362.785 413.943 362.785 415.639C362.785 417.335 362.136 418.087 360.683 418.087ZM364.95 420.18C365.579 420.18 365.944 419.874 365.944 419.245V417.468H364.564V419.042H365.172V419.255C365.172 419.469 365.091 419.509 364.919 419.509H364.583V420.18H364.95ZM369.827 419.144C371.878 419.144 373.097 417.803 373.097 415.639C373.097 413.486 371.878 412.135 369.827 412.135C367.775 412.135 366.556 413.486 366.556 415.639C366.556 417.803 367.775 419.144 369.827 419.144ZM369.827 418.087C368.374 418.087 367.714 417.335 367.714 415.639C367.714 413.943 368.374 413.191 369.827 413.191C371.279 413.191 371.929 413.943 371.929 415.639C371.929 417.335 371.279 418.087 369.827 418.087ZM376.977 419.144C379.029 419.144 380.247 417.803 380.247 415.639C380.247 413.486 379.029 412.135 376.977 412.135C374.925 412.135 373.707 413.486 373.707 415.639C373.707 417.803 374.925 419.144 376.977 419.144ZM376.977 418.087C375.525 418.087 374.865 417.335 374.865 415.639C374.865 413.943 375.525 413.191 376.977 413.191C378.43 413.191 379.079 413.943 379.079 415.639C379.079 417.335 378.43 418.087 376.977 418.087ZM384.129 419.144C386.18 419.144 387.399 417.803 387.399 415.639C387.399 413.486 386.18 412.135 384.129 412.135C382.077 412.135 380.859 413.486 380.859 415.639C380.859 417.803 382.077 419.144 384.129 419.144ZM384.129 418.087C382.677 418.087 382.016 417.335 382.016 415.639C382.016 413.943 382.677 413.191 384.129 413.191C385.581 413.191 386.231 413.943 386.231 415.639C386.231 417.335 385.581 418.087 384.129 418.087Z" fill="black"/>
<path d="M116.673 484.573H116.348L119.354 478.458H120.167V485.06H119.354V479.87L119.516 479.91L116.916 485.06H116.104L113.504 479.92L113.666 479.88V485.06H112.854V478.458H113.666L116.673 484.573ZM123.842 485.162C123.408 485.162 123.002 485.056 122.623 484.847C122.244 484.637 121.936 484.336 121.698 483.943C121.468 483.543 121.354 483.072 121.354 482.531C121.354 481.989 121.468 481.522 121.698 481.13C121.936 480.73 122.244 480.422 122.623 480.205C123.002 479.988 123.408 479.88 123.842 479.88C124.275 479.88 124.678 479.988 125.05 480.205C125.43 480.422 125.734 480.73 125.964 481.13C126.194 481.522 126.31 481.989 126.31 482.531C126.31 483.072 126.194 483.543 125.964 483.943C125.734 484.336 125.43 484.637 125.05 484.847C124.678 485.056 124.275 485.162 123.842 485.162ZM123.842 484.4C124.125 484.4 124.393 484.328 124.644 484.187C124.894 484.045 125.097 483.834 125.253 483.557C125.416 483.272 125.497 482.93 125.497 482.531C125.497 482.132 125.416 481.793 125.253 481.516C125.097 481.231 124.894 481.014 124.644 480.866C124.393 480.716 124.125 480.642 123.842 480.642C123.557 480.642 123.286 480.716 123.029 480.866C122.779 481.007 122.572 481.221 122.41 481.505C122.248 481.782 122.166 482.124 122.166 482.531C122.166 482.93 122.244 483.272 122.4 483.557C122.562 483.834 122.771 484.045 123.029 484.187C123.286 484.328 123.557 484.4 123.842 484.4ZM127.341 479.982H128.153V485.06H127.341V479.982ZM129.9 479.88C130.171 479.88 130.415 479.92 130.631 480.002C130.848 480.083 131.031 480.201 131.179 480.357C131.328 480.513 131.444 480.703 131.525 480.927C131.606 481.143 131.647 481.39 131.647 481.668V485.06H130.834V481.871C130.834 481.478 130.742 481.183 130.56 480.987C130.377 480.79 130.103 480.693 129.738 480.693C129.46 480.693 129.203 480.764 128.966 480.906C128.728 481.048 128.532 481.244 128.376 481.495C128.228 481.738 128.136 482.023 128.102 482.348L128.092 481.759C128.126 481.474 128.194 481.217 128.295 480.987C128.403 480.757 128.536 480.56 128.692 480.398C128.854 480.229 129.036 480.1 129.24 480.013C129.449 479.924 129.669 479.88 129.9 479.88ZM132.608 479.982H135.594V480.743H132.608V479.982ZM133.696 478.662H134.508V485.06H133.696V478.662ZM140.17 485.06V481.871C140.17 481.607 140.129 481.39 140.048 481.221C139.967 481.045 139.845 480.913 139.682 480.824C139.52 480.737 139.317 480.693 139.073 480.693C138.795 480.693 138.538 480.764 138.301 480.906C138.065 481.048 137.867 481.244 137.712 481.495C137.563 481.738 137.472 482.023 137.438 482.348L137.428 481.759C137.462 481.474 137.529 481.217 137.631 480.987C137.739 480.757 137.871 480.56 138.027 480.398C138.189 480.229 138.373 480.1 138.575 480.013C138.785 479.924 139.005 479.88 139.235 479.88C139.506 479.88 139.75 479.92 139.967 480.002C140.183 480.083 140.366 480.201 140.515 480.357C140.664 480.513 140.779 480.703 140.861 480.927C140.942 481.143 140.982 481.39 140.982 481.668V485.06H140.17ZM136.676 485.06V477.95H137.489V485.06H136.676ZM142.408 477.95H143.22V485.06H142.408V477.95ZM144.19 479.982H145.064L146.882 484.857L146.171 485.06L144.19 479.982ZM148.913 479.982L146.08 487.091H145.196L146.424 484.349L148.05 479.982H148.913ZM156.417 483.15C156.369 483.57 156.234 483.933 156.01 484.237C155.793 484.535 155.519 484.765 155.188 484.928C154.856 485.084 154.497 485.162 154.111 485.162C153.678 485.162 153.271 485.056 152.892 484.847C152.514 484.637 152.206 484.336 151.968 483.943C151.738 483.543 151.622 483.072 151.622 482.531C151.622 481.989 151.738 481.522 151.968 481.13C152.206 480.73 152.514 480.422 152.892 480.205C153.271 479.988 153.678 479.88 154.111 479.88C154.497 479.88 154.853 479.962 155.177 480.124C155.509 480.286 155.783 480.517 156 480.815C156.223 481.113 156.362 481.468 156.417 481.881H155.675C155.56 481.495 155.361 481.193 155.076 480.977C154.792 480.754 154.47 480.642 154.111 480.642C153.82 480.642 153.545 480.716 153.288 480.866C153.031 481.014 152.824 481.231 152.668 481.516C152.514 481.793 152.436 482.132 152.436 482.531C152.436 482.924 152.514 483.262 152.668 483.547C152.824 483.824 153.028 484.037 153.278 484.187C153.535 484.328 153.813 484.4 154.111 484.4C154.524 484.4 154.859 484.292 155.116 484.075C155.38 483.851 155.57 483.543 155.685 483.15H156.417ZM159.655 485.162C159.222 485.162 158.816 485.056 158.437 484.847C158.057 484.637 157.749 484.336 157.513 483.943C157.282 483.543 157.167 483.072 157.167 482.531C157.167 481.989 157.282 481.522 157.513 481.13C157.749 480.73 158.057 480.422 158.437 480.205C158.816 479.988 159.222 479.88 159.655 479.88C160.088 479.88 160.491 479.988 160.864 480.205C161.243 480.422 161.547 480.73 161.777 481.13C162.008 481.522 162.123 481.989 162.123 482.531C162.123 483.072 162.008 483.543 161.777 483.943C161.547 484.336 161.243 484.637 160.864 484.847C160.491 485.056 160.088 485.162 159.655 485.162ZM159.655 484.4C159.94 484.4 160.207 484.328 160.457 484.187C160.708 484.045 160.911 483.834 161.067 483.557C161.229 483.272 161.311 482.93 161.311 482.531C161.311 482.132 161.229 481.793 161.067 481.516C160.911 481.231 160.708 481.014 160.457 480.866C160.207 480.716 159.94 480.642 159.655 480.642C159.371 480.642 159.1 480.716 158.843 480.866C158.592 481.007 158.386 481.221 158.223 481.505C158.061 481.782 157.979 482.124 157.979 482.531C157.979 482.93 158.057 483.272 158.213 483.557C158.376 483.834 158.586 484.045 158.843 484.187C159.1 484.328 159.371 484.4 159.655 484.4ZM162.911 483.425H163.662C163.683 483.716 163.791 483.953 163.987 484.136C164.19 484.319 164.481 484.41 164.86 484.41C165.09 484.41 165.27 484.379 165.399 484.319C165.534 484.258 165.632 484.176 165.693 484.075C165.754 483.967 165.785 483.848 165.785 483.72C165.785 483.564 165.744 483.442 165.663 483.353C165.588 483.259 165.484 483.181 165.347 483.12C165.219 483.059 165.07 483.002 164.901 482.947C164.704 482.873 164.501 482.795 164.292 482.713C164.088 482.626 163.896 482.525 163.713 482.409C163.537 482.287 163.394 482.141 163.286 481.972C163.177 481.797 163.124 481.586 163.124 481.343C163.124 481.14 163.164 480.95 163.246 480.774C163.327 480.591 163.442 480.435 163.591 480.307C163.747 480.171 163.926 480.066 164.13 479.992C164.339 479.918 164.569 479.88 164.82 479.88C165.159 479.88 165.442 479.948 165.673 480.083C165.91 480.218 166.089 480.412 166.211 480.662C166.34 480.906 166.408 481.191 166.414 481.516H165.714C165.666 481.21 165.568 480.991 165.419 480.855C165.277 480.713 165.07 480.642 164.799 480.642C164.522 480.642 164.309 480.703 164.16 480.824C164.01 480.946 163.936 481.109 163.936 481.312C163.936 481.461 163.991 481.586 164.099 481.688C164.207 481.782 164.346 481.871 164.516 481.952C164.691 482.027 164.877 482.105 165.073 482.186C165.27 482.267 165.459 482.348 165.642 482.43C165.825 482.511 165.988 482.605 166.13 482.713C166.272 482.822 166.384 482.958 166.465 483.12C166.553 483.276 166.597 483.473 166.597 483.709C166.597 483.994 166.53 484.248 166.394 484.471C166.266 484.687 166.072 484.857 165.815 484.978C165.564 485.101 165.256 485.162 164.891 485.162C164.559 485.162 164.275 485.121 164.038 485.04C163.808 484.951 163.615 484.839 163.459 484.704C163.303 484.562 163.181 484.413 163.093 484.258C163.012 484.102 162.958 483.95 162.931 483.8C162.903 483.652 162.897 483.526 162.911 483.425ZM167.282 479.982H170.268V480.743H167.282V479.982ZM168.368 478.662H169.181V485.06H168.368V478.662ZM173.004 479.982H175.99V480.743H173.004V479.982ZM175.635 477.95H176.102V478.763H175.635C175.466 478.756 175.31 478.78 175.167 478.834C175.032 478.888 174.924 478.983 174.842 479.118C174.762 479.247 174.72 479.433 174.72 479.677V485.06H173.908V479.677C173.908 479.27 173.979 478.943 174.121 478.692C174.271 478.434 174.473 478.248 174.731 478.134C174.995 478.012 175.296 477.95 175.635 477.95ZM178.985 485.162C178.552 485.162 178.146 485.056 177.766 484.847C177.387 484.637 177.079 484.336 176.842 483.943C176.612 483.543 176.497 483.072 176.497 482.531C176.497 481.989 176.612 481.522 176.842 481.13C177.079 480.73 177.387 480.422 177.766 480.205C178.146 479.988 178.552 479.88 178.985 479.88C179.419 479.88 179.822 479.988 180.194 480.205C180.573 480.422 180.877 480.73 181.108 481.13C181.338 481.522 181.453 481.989 181.453 482.531C181.453 483.072 181.338 483.543 181.108 483.943C180.877 484.336 180.573 484.637 180.194 484.847C179.822 485.056 179.419 485.162 178.985 485.162ZM178.985 484.4C179.27 484.4 179.537 484.328 179.788 484.187C180.038 484.045 180.242 483.834 180.397 483.557C180.56 483.272 180.641 482.93 180.641 482.531C180.641 482.132 180.56 481.793 180.397 481.516C180.242 481.231 180.038 481.014 179.788 480.866C179.537 480.716 179.27 480.642 178.985 480.642C178.701 480.642 178.43 480.716 178.173 480.866C177.922 481.007 177.716 481.221 177.553 481.505C177.391 481.782 177.309 482.124 177.309 482.531C177.309 482.93 177.387 483.272 177.543 483.557C177.705 483.834 177.916 484.045 178.173 484.187C178.43 484.328 178.701 484.4 178.985 484.4ZM182.484 479.982H183.297V485.06H182.484V479.982ZM184.921 480.743C184.576 480.743 184.285 480.832 184.048 481.007C183.818 481.177 183.635 481.387 183.5 481.637C183.371 481.881 183.287 482.118 183.246 482.348L183.236 481.759C183.236 481.698 183.249 481.596 183.276 481.455C183.304 481.312 183.354 481.153 183.428 480.977C183.504 480.794 183.601 480.621 183.723 480.459C183.852 480.29 184.014 480.151 184.211 480.043C184.407 479.935 184.644 479.88 184.921 479.88V480.743ZM187.563 480.743V479.982H189.564V485.06H188.751V480.743H187.563ZM193.07 481.719C192.725 481.719 192.407 481.664 192.116 481.556C191.831 481.448 191.604 481.278 191.435 481.048C191.266 480.811 191.181 480.51 191.181 480.144C191.181 479.806 191.259 479.504 191.414 479.24C191.57 478.97 191.79 478.757 192.075 478.601C192.359 478.438 192.69 478.356 193.07 478.356C193.456 478.356 193.788 478.438 194.065 478.601C194.35 478.757 194.569 478.97 194.725 479.24C194.881 479.504 194.959 479.806 194.959 480.144C194.959 480.51 194.875 480.811 194.706 481.048C194.536 481.278 194.309 481.448 194.025 481.556C193.74 481.664 193.422 481.719 193.07 481.719ZM193.07 481.21C193.293 481.21 193.483 481.163 193.639 481.068C193.801 480.974 193.926 480.849 194.014 480.693C194.103 480.53 194.147 480.347 194.147 480.144C194.147 479.941 194.103 479.762 194.014 479.606C193.926 479.45 193.801 479.331 193.639 479.251C193.483 479.162 193.293 479.118 193.07 479.118C192.854 479.118 192.664 479.162 192.502 479.251C192.339 479.331 192.213 479.45 192.125 479.606C192.038 479.762 191.994 479.941 191.994 480.144C191.994 480.347 192.038 480.53 192.125 480.693C192.213 480.849 192.339 480.974 192.502 481.068C192.664 481.163 192.854 481.21 193.07 481.21ZM193.07 485.162C192.623 485.162 192.241 485.077 191.922 484.908C191.604 484.731 191.361 484.501 191.191 484.217C191.022 483.925 190.937 483.604 190.937 483.252C190.937 482.852 191.032 482.521 191.222 482.257C191.412 481.986 191.669 481.786 191.994 481.658C192.319 481.522 192.677 481.455 193.07 481.455C193.47 481.455 193.829 481.522 194.147 481.658C194.472 481.786 194.729 481.986 194.919 482.257C195.108 482.521 195.203 482.852 195.203 483.252C195.203 483.604 195.118 483.925 194.949 484.217C194.78 484.501 194.536 484.731 194.217 484.908C193.906 485.077 193.523 485.162 193.07 485.162ZM193.07 484.4C193.361 484.4 193.605 484.353 193.801 484.258C193.998 484.156 194.143 484.017 194.238 483.841C194.339 483.665 194.39 483.469 194.39 483.252C194.39 483.015 194.339 482.808 194.238 482.633C194.143 482.449 193.998 482.308 193.801 482.206C193.605 482.105 193.361 482.054 193.07 482.054C192.779 482.054 192.536 482.105 192.339 482.206C192.142 482.308 191.994 482.449 191.892 482.633C191.798 482.808 191.75 483.015 191.75 483.252C191.75 483.469 191.798 483.665 191.892 483.841C191.994 484.017 192.142 484.156 192.339 484.258C192.536 484.353 192.779 484.4 193.07 484.4ZM196.221 479.982H197.033V485.06H196.221V479.982ZM198.781 479.88C199.051 479.88 199.295 479.92 199.511 480.002C199.728 480.083 199.911 480.201 200.06 480.357C200.209 480.513 200.324 480.703 200.405 480.927C200.487 481.143 200.527 481.39 200.527 481.668V485.06H199.715V481.871C199.715 481.478 199.623 481.183 199.441 480.987C199.258 480.79 198.983 480.693 198.618 480.693C198.34 480.693 198.083 480.764 197.845 480.906C197.609 481.048 197.413 481.244 197.257 481.495C197.108 481.738 197.016 482.023 196.983 482.348L196.972 481.759C197.006 481.474 197.074 481.217 197.176 480.987C197.284 480.757 197.416 480.56 197.571 480.398C197.735 480.229 197.917 480.1 198.121 480.013C198.33 479.924 198.55 479.88 198.781 479.88ZM202.193 479.88C202.463 479.88 202.707 479.92 202.923 480.002C203.14 480.083 203.323 480.201 203.473 480.357C203.621 480.513 203.737 480.703 203.817 480.927C203.899 481.143 203.939 481.39 203.939 481.668V485.06H203.127V481.871C203.127 481.478 203.035 481.183 202.853 480.987C202.67 480.79 202.396 480.693 202.03 480.693C201.753 480.693 201.495 480.764 201.259 480.906C201.021 481.048 200.825 481.244 200.669 481.495C200.521 481.738 200.429 482.023 200.395 482.348L200.384 481.759C200.419 481.474 200.487 481.217 200.588 480.987C200.696 480.757 200.829 480.56 200.984 480.398C201.147 480.229 201.329 480.1 201.533 480.013C201.742 479.924 201.963 479.88 202.193 479.88ZM207.46 485.162C207.026 485.162 206.62 485.056 206.241 484.847C205.861 484.637 205.554 484.336 205.317 483.943C205.086 483.543 204.971 483.072 204.971 482.531C204.971 481.989 205.086 481.522 205.317 481.13C205.554 480.73 205.861 480.422 206.241 480.205C206.62 479.988 207.026 479.88 207.46 479.88C207.893 479.88 208.295 479.988 208.668 480.205C209.047 480.422 209.352 480.73 209.582 481.13C209.812 481.522 209.927 481.989 209.927 482.531C209.927 483.072 209.812 483.543 209.582 483.943C209.352 484.336 209.047 484.637 208.668 484.847C208.295 485.056 207.893 485.162 207.46 485.162ZM207.46 484.4C207.744 484.4 208.011 484.328 208.262 484.187C208.512 484.045 208.715 483.834 208.871 483.557C209.033 483.272 209.115 482.93 209.115 482.531C209.115 482.132 209.033 481.793 208.871 481.516C208.715 481.231 208.512 481.014 208.262 480.866C208.011 480.716 207.744 480.642 207.46 480.642C207.175 480.642 206.904 480.716 206.646 480.866C206.397 481.007 206.19 481.221 206.028 481.505C205.865 481.782 205.784 482.124 205.784 482.531C205.784 482.93 205.861 483.272 206.017 483.557C206.18 483.834 206.389 484.045 206.646 484.187C206.904 484.328 207.175 484.4 207.46 484.4ZM210.959 479.982H211.771V485.06H210.959V479.982ZM213.518 479.88C213.789 479.88 214.032 479.92 214.249 480.002C214.466 480.083 214.649 480.201 214.798 480.357C214.947 480.513 215.062 480.703 215.143 480.927C215.224 481.143 215.265 481.39 215.265 481.668V485.06H214.452V481.871C214.452 481.478 214.361 481.183 214.178 480.987C213.996 480.79 213.722 480.693 213.355 480.693C213.078 480.693 212.821 480.764 212.584 480.906C212.347 481.048 212.151 481.244 211.995 481.495C211.846 481.738 211.755 482.023 211.721 482.348L211.71 481.759C211.744 481.474 211.812 481.217 211.913 480.987C212.022 480.757 212.154 480.56 212.309 480.398C212.472 480.229 212.655 480.1 212.858 480.013C213.068 479.924 213.288 479.88 213.518 479.88ZM216.227 479.982H219.213V480.743H216.227V479.982ZM217.313 478.662H218.125V485.06H217.313V478.662ZM223.787 485.06V481.871C223.787 481.607 223.747 481.39 223.665 481.221C223.585 481.045 223.463 480.913 223.3 480.824C223.138 480.737 222.935 480.693 222.691 480.693C222.413 480.693 222.156 480.764 221.919 480.906C221.682 481.048 221.486 481.244 221.33 481.495C221.181 481.738 221.09 482.023 221.056 482.348L221.046 481.759C221.079 481.474 221.147 481.217 221.248 480.987C221.357 480.757 221.489 480.56 221.645 480.398C221.807 480.229 221.99 480.1 222.193 480.013C222.403 479.924 222.623 479.88 222.853 479.88C223.125 479.88 223.368 479.92 223.585 480.002C223.802 480.083 223.984 480.201 224.133 480.357C224.282 480.513 224.397 480.703 224.479 480.927C224.559 481.143 224.6 481.39 224.6 481.668V485.06H223.787ZM220.294 485.06V477.95H221.107V485.06H220.294ZM225.68 483.425H226.433C226.452 483.716 226.561 483.953 226.757 484.136C226.96 484.319 227.251 484.41 227.631 484.41C227.861 484.41 228.04 484.379 228.169 484.319C228.305 484.258 228.403 484.176 228.464 484.075C228.525 483.967 228.555 483.848 228.555 483.72C228.555 483.564 228.514 483.442 228.434 483.353C228.358 483.259 228.253 483.181 228.118 483.12C227.989 483.059 227.841 483.002 227.671 482.947C227.475 482.873 227.272 482.795 227.062 482.713C226.859 482.626 226.666 482.525 226.483 482.409C226.307 482.287 226.165 482.141 226.057 481.972C225.948 481.797 225.895 481.586 225.895 481.343C225.895 481.14 225.935 480.95 226.016 480.774C226.097 480.591 226.212 480.435 226.361 480.307C226.517 480.171 226.696 480.066 226.899 479.992C227.11 479.918 227.34 479.88 227.59 479.88C227.928 479.88 228.213 479.948 228.443 480.083C228.68 480.218 228.86 480.412 228.982 480.662C229.111 480.906 229.178 481.191 229.185 481.516H228.484C228.436 481.21 228.339 480.991 228.189 480.855C228.048 480.713 227.841 480.642 227.57 480.642C227.293 480.642 227.079 480.703 226.93 480.824C226.781 480.946 226.707 481.109 226.707 481.312C226.707 481.461 226.761 481.586 226.869 481.688C226.977 481.782 227.116 481.871 227.285 481.952C227.462 482.027 227.648 482.105 227.844 482.186C228.04 482.267 228.23 482.348 228.413 482.43C228.596 482.511 228.758 482.605 228.9 482.713C229.043 482.822 229.155 482.958 229.235 483.12C229.324 483.276 229.368 483.473 229.368 483.709C229.368 483.994 229.3 484.248 229.164 484.471C229.035 484.687 228.843 484.857 228.586 484.978C228.335 485.101 228.027 485.162 227.662 485.162C227.329 485.162 227.045 485.121 226.808 485.04C226.578 484.951 226.385 484.839 226.23 484.704C226.074 484.562 225.952 484.413 225.864 484.258C225.783 484.102 225.728 483.95 225.701 483.8C225.674 483.652 225.667 483.526 225.68 483.425Z" fill="#808080"/>
<path d="M112.888 148.012C112.781 148.012 112.673 147.972 112.588 147.888L108.909 144.209C108.312 143.61 108.312 142.629 108.909 142.031L112.588 138.352C112.752 138.188 113.023 138.188 113.186 138.352C113.35 138.516 113.35 138.786 113.186 138.95L109.507 142.629C109.237 142.9 109.237 143.34 109.507 143.61L113.186 147.289C113.35 147.454 113.35 147.724 113.186 147.888C113.102 147.967 112.995 148.012 112.888 148.012Z" fill="#101828"/>
<path d="M207.508 138.563V146.187H212.68V147.352H206.207V138.563H207.508ZM217.202 147.501C216.542 147.501 215.938 147.361 215.387 147.081C214.836 146.801 214.399 146.4 214.074 145.876C213.749 145.352 213.586 144.725 213.586 143.994C213.586 143.254 213.749 142.621 214.074 142.098C214.399 141.565 214.836 141.159 215.387 140.879C215.938 140.599 216.542 140.459 217.202 140.459C217.861 140.459 218.462 140.599 219.003 140.879C219.544 141.159 219.978 141.565 220.303 142.098C220.628 142.621 220.79 143.254 220.79 143.994C220.79 144.725 220.628 145.352 220.303 145.876C219.978 146.4 219.544 146.801 219.003 147.081C218.462 147.361 217.861 147.501 217.202 147.501ZM217.202 146.377C217.608 146.377 217.983 146.287 218.326 146.106C218.679 145.917 218.957 145.645 219.166 145.293C219.382 144.932 219.491 144.499 219.491 143.994C219.491 143.479 219.382 143.041 219.166 142.68C218.957 142.319 218.679 142.044 218.326 141.854C217.983 141.664 217.608 141.569 217.202 141.569C216.796 141.569 216.417 141.664 216.064 141.854C215.712 142.034 215.428 142.306 215.212 142.666C214.995 143.027 214.887 143.47 214.887 143.994C214.887 144.499 214.99 144.932 215.198 145.293C215.415 145.645 215.699 145.917 216.051 146.106C216.403 146.287 216.786 146.377 217.202 146.377ZM224.94 147.488C224.362 147.488 223.833 147.338 223.356 147.04C222.877 146.743 222.497 146.332 222.218 145.808C221.938 145.275 221.799 144.666 221.799 143.98C221.799 143.294 221.938 142.689 222.218 142.166C222.507 141.633 222.899 141.218 223.396 140.919C223.893 140.613 224.448 140.459 225.062 140.459C225.739 140.459 226.262 140.617 226.633 140.933C227.012 141.249 227.273 141.673 227.419 142.206C227.572 142.739 227.649 143.33 227.649 143.98C227.649 144.341 227.603 144.725 227.513 145.131C227.422 145.537 227.278 145.921 227.08 146.282C226.88 146.643 226.605 146.936 226.253 147.163C225.901 147.379 225.464 147.488 224.94 147.488ZM225.306 146.363C225.784 146.363 226.186 146.26 226.511 146.052C226.845 145.835 227.093 145.547 227.256 145.185C227.419 144.824 227.499 144.422 227.499 143.98C227.499 143.502 227.413 143.082 227.242 142.721C227.08 142.359 226.831 142.079 226.497 141.881C226.172 141.682 225.774 141.583 225.306 141.583C224.602 141.583 224.055 141.809 223.667 142.26C223.288 142.711 223.098 143.285 223.098 143.98C223.098 144.449 223.193 144.865 223.383 145.225C223.572 145.578 223.83 145.858 224.155 146.065C224.488 146.264 224.872 146.363 225.306 146.363ZM227.499 140.594H228.8V147.352H227.608C227.608 147.352 227.599 147.271 227.581 147.108C227.562 146.936 227.544 146.733 227.526 146.498C227.508 146.264 227.499 146.056 227.499 145.876V140.594ZM230.495 140.594H231.794V147.352H230.495V140.594ZM234.367 140.459C234.746 140.459 235.089 140.513 235.396 140.621C235.704 140.73 235.965 140.893 236.182 141.109C236.399 141.316 236.565 141.578 236.682 141.894C236.809 142.201 236.872 142.554 236.872 142.951V147.352H235.586V143.235C235.586 142.702 235.455 142.306 235.193 142.044C234.941 141.773 234.553 141.637 234.029 141.637C233.622 141.637 233.252 141.732 232.918 141.921C232.584 142.111 232.309 142.364 232.093 142.68C231.885 142.987 231.758 143.334 231.713 143.722L231.699 142.977C231.744 142.617 231.839 142.283 231.984 141.976C232.137 141.669 232.327 141.403 232.553 141.176C232.788 140.942 233.058 140.766 233.365 140.648C233.672 140.523 234.006 140.459 234.367 140.459ZM250.149 144.345C250.068 145.005 249.841 145.569 249.472 146.038C249.111 146.508 248.637 146.869 248.05 147.121C247.463 147.375 246.795 147.501 246.046 147.501C245.369 147.501 244.746 147.397 244.177 147.19C243.617 146.982 243.129 146.683 242.714 146.295C242.299 145.907 241.975 145.433 241.74 144.874C241.504 144.305 241.388 143.669 241.388 142.964C241.388 142.251 241.504 141.614 241.74 141.055C241.975 140.495 242.299 140.021 242.714 139.633C243.129 139.235 243.617 138.933 244.177 138.725C244.746 138.518 245.369 138.414 246.046 138.414C246.805 138.414 247.476 138.545 248.064 138.807C248.65 139.06 249.124 139.425 249.485 139.903C249.855 140.373 250.082 140.938 250.162 141.596H248.916C248.799 141.173 248.606 140.811 248.334 140.513C248.064 140.215 247.733 139.99 247.345 139.836C246.958 139.673 246.524 139.592 246.046 139.592C245.432 139.592 244.872 139.723 244.367 139.985C243.861 140.246 243.454 140.626 243.148 141.123C242.851 141.619 242.701 142.233 242.701 142.964C242.701 143.687 242.851 144.3 243.148 144.806C243.454 145.302 243.861 145.682 244.367 145.943C244.872 146.196 245.432 146.323 246.046 146.323C246.524 146.323 246.953 146.246 247.332 146.093C247.72 145.939 248.05 145.713 248.321 145.415C248.591 145.117 248.79 144.76 248.916 144.345H250.149ZM254.496 147.488C253.917 147.488 253.39 147.338 252.912 147.04C252.432 146.743 252.053 146.332 251.774 145.808C251.494 145.275 251.354 144.666 251.354 143.98C251.354 143.294 251.494 142.689 251.774 142.166C252.063 141.633 252.455 141.218 252.952 140.919C253.448 140.613 254.003 140.459 254.618 140.459C255.295 140.459 255.818 140.617 256.189 140.933C256.567 141.249 256.829 141.673 256.974 142.206C257.127 142.739 257.204 143.33 257.204 143.98C257.204 144.341 257.158 144.725 257.069 145.131C256.977 145.537 256.833 145.921 256.635 146.282C256.437 146.643 256.162 146.936 255.809 147.163C255.457 147.379 255.019 147.488 254.496 147.488ZM254.861 146.363C255.339 146.363 255.742 146.26 256.067 146.052C256.4 145.835 256.649 145.547 256.811 145.185C256.974 144.824 257.054 144.422 257.054 143.98C257.054 143.502 256.969 143.082 256.797 142.721C256.635 142.359 256.386 142.079 256.053 141.881C255.728 141.682 255.331 141.583 254.861 141.583C254.157 141.583 253.61 141.809 253.223 142.26C252.843 142.711 252.654 143.285 252.654 143.98C252.654 144.449 252.749 144.865 252.938 145.225C253.128 145.578 253.385 145.858 253.71 146.065C254.044 146.264 254.428 146.363 254.861 146.363ZM257.054 140.594H258.355V147.352H257.163C257.163 147.352 257.154 147.271 257.136 147.108C257.117 146.936 257.1 146.733 257.082 146.498C257.064 146.264 257.054 146.056 257.054 145.876V140.594ZM260.186 137.885H261.486V147.352H260.186V137.885ZM269.964 144.779C269.911 145.338 269.73 145.826 269.424 146.241C269.125 146.648 268.733 146.959 268.245 147.176C267.758 147.393 267.216 147.501 266.62 147.501C265.961 147.501 265.356 147.366 264.806 147.095C264.255 146.815 263.812 146.413 263.479 145.89C263.154 145.357 262.991 144.725 262.991 143.994C262.991 143.254 263.154 142.621 263.479 142.098C263.812 141.565 264.255 141.159 264.806 140.879C265.356 140.599 265.961 140.459 266.62 140.459C267.216 140.459 267.752 140.568 268.232 140.784C268.71 141.001 269.102 141.312 269.41 141.718C269.716 142.116 269.902 142.594 269.964 143.154H268.787C268.633 142.666 268.358 142.283 267.961 142.003C267.572 141.714 267.125 141.569 266.62 141.569C266.205 141.569 265.816 141.664 265.456 141.854C265.103 142.044 264.819 142.319 264.603 142.68C264.394 143.032 264.291 143.47 264.291 143.994C264.291 144.499 264.394 144.932 264.603 145.293C264.819 145.645 265.103 145.917 265.456 146.106C265.808 146.287 266.195 146.377 266.62 146.377C267.197 146.377 267.667 146.237 268.028 145.957C268.389 145.677 268.646 145.285 268.8 144.779H269.964ZM277.695 147.352H276.409V140.594H277.695V147.352ZM276.476 144.169L276.49 144.575C276.481 144.693 276.449 144.869 276.396 145.104C276.35 145.33 276.269 145.578 276.151 145.848C276.043 146.12 275.889 146.381 275.691 146.635C275.502 146.887 275.257 147.095 274.96 147.257C274.662 147.42 274.301 147.501 273.876 147.501C273.587 147.501 273.289 147.46 272.983 147.379C272.685 147.298 272.409 147.163 272.157 146.973C271.903 146.783 271.701 146.526 271.548 146.201C271.394 145.867 271.318 145.452 271.318 144.955V140.594H272.617V144.684C272.617 145.1 272.68 145.425 272.807 145.659C272.942 145.893 273.132 146.061 273.376 146.16C273.619 146.26 273.894 146.31 274.202 146.31C274.671 146.31 275.063 146.196 275.38 145.97C275.704 145.736 275.957 145.456 276.138 145.131C276.319 144.797 276.431 144.477 276.476 144.169ZM279.532 137.885H280.832V147.352H279.532V137.885ZM285.479 147.488C284.901 147.488 284.373 147.338 283.894 147.04C283.416 146.743 283.037 146.332 282.757 145.808C282.477 145.275 282.337 144.666 282.337 143.98C282.337 143.294 282.477 142.689 282.757 142.166C283.045 141.633 283.439 141.218 283.935 140.919C284.432 140.613 284.987 140.459 285.601 140.459C286.278 140.459 286.802 140.617 287.171 140.933C287.551 141.249 287.813 141.673 287.957 142.206C288.11 142.739 288.187 143.33 288.187 143.98C288.187 144.341 288.142 144.725 288.052 145.131C287.961 145.537 287.817 145.921 287.618 146.282C287.42 146.643 287.145 146.936 286.793 147.163C286.441 147.379 286.003 147.488 285.479 147.488ZM285.844 146.363C286.322 146.363 286.725 146.26 287.05 146.052C287.384 145.835 287.632 145.547 287.795 145.185C287.957 144.824 288.038 144.422 288.038 143.98C288.038 143.502 287.952 143.082 287.781 142.721C287.618 142.359 287.37 142.079 287.036 141.881C286.711 141.682 286.314 141.583 285.844 141.583C285.14 141.583 284.595 141.809 284.206 142.26C283.827 142.711 283.637 143.285 283.637 143.98C283.637 144.449 283.732 144.865 283.921 145.225C284.111 145.578 284.368 145.858 284.693 146.065C285.028 146.264 285.412 146.363 285.844 146.363ZM288.038 140.594H289.338V147.352H288.147C288.147 147.352 288.137 147.271 288.12 147.108C288.102 146.936 288.083 146.733 288.065 146.498C288.047 146.264 288.038 146.056 288.038 145.876V140.594ZM290.559 140.594H294.934V141.718H290.559V140.594ZM292.104 138.807H293.39V147.352H292.104V138.807ZM299.308 147.501C298.65 147.501 298.045 147.361 297.494 147.081C296.944 146.801 296.506 146.4 296.181 145.876C295.856 145.352 295.693 144.725 295.693 143.994C295.693 143.254 295.856 142.621 296.181 142.098C296.506 141.565 296.944 141.159 297.494 140.879C298.045 140.599 298.65 140.459 299.308 140.459C299.969 140.459 300.569 140.599 301.109 140.879C301.651 141.159 302.085 141.565 302.41 142.098C302.735 142.621 302.897 143.254 302.897 143.994C302.897 144.725 302.735 145.352 302.41 145.876C302.085 146.4 301.651 146.801 301.109 147.081C300.569 147.361 299.969 147.501 299.308 147.501ZM299.308 146.377C299.715 146.377 300.09 146.287 300.432 146.106C300.784 145.917 301.065 145.645 301.273 145.293C301.489 144.932 301.598 144.499 301.598 143.994C301.598 143.479 301.489 143.041 301.273 142.68C301.065 142.319 300.784 142.044 300.432 141.854C300.09 141.664 299.715 141.569 299.308 141.569C298.903 141.569 298.523 141.664 298.171 141.854C297.819 142.034 297.535 142.306 297.319 142.666C297.102 143.027 296.993 143.47 296.993 143.994C296.993 144.499 297.097 144.932 297.305 145.293C297.522 145.645 297.806 145.917 298.158 146.106C298.51 146.287 298.894 146.377 299.308 146.377ZM304.258 140.594H305.557V147.352H304.258V140.594ZM307.846 141.746C307.377 141.746 306.975 141.854 306.641 142.071C306.316 142.287 306.054 142.554 305.855 142.869C305.665 143.185 305.539 143.487 305.476 143.777L305.462 143.005C305.472 142.914 305.494 142.774 305.53 142.585C305.576 142.386 305.652 142.166 305.76 141.921C305.869 141.678 306.014 141.448 306.194 141.231C306.375 141.005 306.6 140.82 306.871 140.676C307.141 140.531 307.466 140.459 307.846 140.459V141.746Z" fill="#041004"/>
</g>
</g>
</g>
</g>
<defs>
<filter id="filter0_d_236_13574" x="57.6538" y="67.3398" width="397.374" height="532.816" filterUnits="userSpaceOnUse" color-interpolation-filters="sRGB">
<feFlood flood-opacity="0" result="BackgroundImageFix"/>
<feColorMatrix in="SourceAlpha" type="matrix" values="0 0 0 0 0 0 0 0 0 0 0 0 0 0 0 0 0 0 127 0" result="hardAlpha"/>
<feOffset dy="4"/>
<feGaussianBlur stdDeviation="20"/>
<feComposite in2="hardAlpha" operator="out"/>
<feColorMatrix type="matrix" values="0 0 0 0 0.504167 0 0 0 0 0.495764 0 0 0 0 0.495764 0 0 0 0.3 0"/>
<feBlend mode="normal" in2="BackgroundImageFix" result="effect1_dropShadow_236_13574"/>
<feBlend mode="normal" in="SourceGraphic" in2="effect1_dropShadow_236_13574" result="shape"/>
</filter>
<clipPath id="clip0_236_13574">
<rect width="477" height="481" fill="white"/>
</clipPath>
</defs>
</svg>
