<svg width="56" height="51" viewBox="0 0 56 51" fill="none" xmlns="http://www.w3.org/2000/svg">
<rect y="0.913086" width="56" height="50" rx="9.73913" fill="#F9FAFB"/>
<path d="M33 17.9131C32.7348 17.9131 32.4804 17.8077 32.2929 17.6202C32.1054 17.4327 32 17.1783 32 16.9131C32 16.6479 32.1054 16.3935 32.2929 16.206C32.4804 16.0184 32.7348 15.9131 33 15.9131H37C37.2652 15.9131 37.5196 16.0184 37.7071 16.206C37.8946 16.3935 38 16.6479 38 16.9131V20.9131C38 21.1783 37.8946 21.4327 37.7071 21.6202C37.5196 21.8077 37.2652 21.9131 37 21.9131C36.7348 21.9131 36.4804 21.8077 36.2929 21.6202C36.1054 21.4327 36 21.1783 36 20.9131V19.3271L30.207 25.1201C30.0195 25.3076 29.7652 25.4129 29.5 25.4129C29.2348 25.4129 28.9805 25.3076 28.793 25.1201L26 22.3271L20.707 27.6201C20.5184 27.8022 20.2658 27.903 20.0036 27.9008C19.7414 27.8985 19.4906 27.7933 19.3052 27.6079C19.1198 27.4225 19.0146 27.1717 19.0123 26.9095C19.01 26.6473 19.1108 26.3947 19.293 26.2061L25.293 20.2061C25.4805 20.0186 25.7348 19.9133 26 19.9133C26.2652 19.9133 26.5195 20.0186 26.707 20.2061L29.5 22.9991L34.586 17.9131H33ZM21 31.9131V34.9131C21 35.1783 20.8946 35.4327 20.7071 35.6202C20.5196 35.8077 20.2652 35.9131 20 35.9131C19.7348 35.9131 19.4804 35.8077 19.2929 35.6202C19.1054 35.4327 19 35.1783 19 34.9131V31.9131C19 31.6479 19.1054 31.3935 19.2929 31.206C19.4804 31.0184 19.7348 30.9131 20 30.9131C20.2652 30.9131 20.5196 31.0184 20.7071 31.206C20.8946 31.3935 21 31.6479 21 31.9131ZM26 27.9131C26 27.6479 25.8946 27.3935 25.7071 27.206C25.5196 27.0184 25.2652 26.9131 25 26.9131C24.7348 26.9131 24.4804 27.0184 24.2929 27.206C24.1054 27.3935 24 27.6479 24 27.9131V34.9131C24 35.1783 24.1054 35.4327 24.2929 35.6202C24.4804 35.8077 24.7348 35.9131 25 35.9131C25.2652 35.9131 25.5196 35.8077 25.7071 35.6202C25.8946 35.4327 26 35.1783 26 34.9131V27.9131ZM30 28.9131C30.2652 28.9131 30.5196 29.0184 30.7071 29.206C30.8946 29.3935 31 29.6479 31 29.9131V34.9131C31 35.1783 30.8946 35.4327 30.7071 35.6202C30.5196 35.8077 30.2652 35.9131 30 35.9131C29.7348 35.9131 29.4804 35.8077 29.2929 35.6202C29.1054 35.4327 29 35.1783 29 34.9131V29.9131C29 29.6479 29.1054 29.3935 29.2929 29.206C29.4804 29.0184 29.7348 28.9131 30 28.9131ZM36 24.9131C36 24.6479 35.8946 24.3935 35.7071 24.206C35.5196 24.0184 35.2652 23.9131 35 23.9131C34.7348 23.9131 34.4804 24.0184 34.2929 24.206C34.1054 24.3935 34 24.6479 34 24.9131V34.9131C34 35.1783 34.1054 35.4327 34.2929 35.6202C34.4804 35.8077 34.7348 35.9131 35 35.9131C35.2652 35.9131 35.5196 35.8077 35.7071 35.6202C35.8946 35.4327 36 35.1783 36 34.9131V24.9131Z" fill="#092767"/>
</svg>
