<svg width="56" height="51" viewBox="0 0 56 51" fill="none" xmlns="http://www.w3.org/2000/svg">
<rect y="0.913086" width="56" height="50" rx="9.73913" fill="#F9FAFB"/>
<path d="M28 29.4881C28.1333 29.4881 28.2583 29.4671 28.375 29.4251C28.4917 29.3838 28.6 29.3131 28.7 29.2131L31.3 26.6131C31.4833 26.4298 31.575 26.1964 31.575 25.9131C31.575 25.6298 31.4833 25.3964 31.3 25.2131C31.1167 25.0298 30.8833 24.9381 30.6 24.9381C30.3167 24.9381 30.0833 25.0298 29.9 25.2131L29 26.1131V22.9131C29 22.6298 28.9043 22.3921 28.713 22.2001C28.521 22.0088 28.2833 21.9131 28 21.9131C27.7167 21.9131 27.4793 22.0088 27.288 22.2001C27.096 22.3921 27 22.6298 27 22.9131V26.1131L26.1 25.2131C25.9167 25.0298 25.6833 24.9381 25.4 24.9381C25.1167 24.9381 24.8833 25.0298 24.7 25.2131C24.5167 25.3964 24.425 25.6298 24.425 25.9131C24.425 26.1964 24.5167 26.4298 24.7 26.6131L27.3 29.2131C27.4 29.3131 27.5083 29.3838 27.625 29.4251C27.7417 29.4671 27.8667 29.4881 28 29.4881ZM28 35.9131C26.6167 35.9131 25.3167 35.6504 24.1 35.1251C22.8833 34.6004 21.825 33.8881 20.925 32.9881C20.025 32.0881 19.3127 31.0298 18.788 29.8131C18.2627 28.5964 18 27.2964 18 25.9131C18 24.5298 18.2627 23.2298 18.788 22.0131C19.3127 20.7964 20.025 19.7381 20.925 18.8381C21.825 17.9381 22.8833 17.2254 24.1 16.7001C25.3167 16.1754 26.6167 15.9131 28 15.9131C29.3833 15.9131 30.6833 16.1754 31.9 16.7001C33.1167 17.2254 34.175 17.9381 35.075 18.8381C35.975 19.7381 36.6873 20.7964 37.212 22.0131C37.7373 23.2298 38 24.5298 38 25.9131C38 27.2964 37.7373 28.5964 37.212 29.8131C36.6873 31.0298 35.975 32.0881 35.075 32.9881C34.175 33.8881 33.1167 34.6004 31.9 35.1251C30.6833 35.6504 29.3833 35.9131 28 35.9131Z" fill="#092767"/>
</svg>
