<svg width="30" height="30" viewBox="0 0 30 30" fill="none" xmlns="http://www.w3.org/2000/svg">
<g clip-path="url(#clip0_47_13081)">
<path d="M29.5 15C29.5 23.0081 23.0081 29.5 15 29.5C6.99187 29.5 0.5 23.0081 0.5 15C0.5 6.99187 6.99187 0.5 15 0.5C23.0081 0.5 29.5 6.99187 29.5 15Z" stroke="white"/>
<path d="M23.9629 16.2069V22.391H20.3775V16.6213C20.3775 15.1726 19.8599 14.1833 18.5617 14.1833C17.571 14.1833 16.9825 14.8493 16.7226 15.4943C16.6282 15.7248 16.6039 16.0448 16.6039 16.3681V22.3908H13.0182C13.0182 22.3908 13.0663 12.6188 13.0182 11.6072H16.6041V13.1354C16.5969 13.1474 16.5867 13.1592 16.5803 13.1707H16.6041V13.1354C17.0806 12.4022 17.9304 11.354 19.8355 11.354C22.1944 11.354 23.9629 12.8952 23.9629 16.2069ZM9.26723 6.40918C8.04072 6.40918 7.23828 7.21429 7.23828 8.27208C7.23828 9.30741 8.01745 10.1358 9.22017 10.1358H9.24343C10.494 10.1358 11.2716 9.30741 11.2716 8.27208C11.2478 7.21429 10.494 6.40918 9.26723 6.40918ZM7.45139 22.391H11.0357V11.6072H7.45139V22.391Z" fill="#F1F2F2"/>
</g>
<defs>
<clipPath id="clip0_47_13081">
<rect width="30" height="30" fill="white"/>
</clipPath>
</defs>
</svg>
