<svg width="1207" height="178" viewBox="0 0 1207 178" fill="none" xmlns="http://www.w3.org/2000/svg">
<rect y="77.207" width="296.553" height="82" rx="41" transform="rotate(-14.9952 0 77.207)" fill="#09675F"/>
<rect x="6" y="82.7295" width="296.553" height="82" rx="41" transform="rotate(-14.9952 6 82.7295)" fill="#0D9488"/>
<path d="M48.2383 106.239L47.4308 103.225L48.8565 102.843C49.8302 102.582 50.2578 102.741 50.7702 103.262L52.585 105.074L54.0223 104.689L52.1216 102.788C51.7129 102.376 51.3416 102.103 50.6954 102.102L50.6736 102.021C52.1124 101.548 52.7473 100.533 52.4026 99.2466C52.0143 97.7977 50.7011 97.2551 48.9393 97.7272L44.9056 98.808L46.9865 106.574L48.2383 106.239ZM46.4587 99.5969L49.229 98.8546C50.2722 98.5751 50.8963 98.8179 51.1509 99.7683C51.4118 100.742 50.9865 101.241 49.9433 101.521L47.173 102.263L46.4587 99.5969ZM55.5857 104.27L55.9378 102.014L60.041 100.914L61.4739 102.692L62.8881 102.313L57.3414 95.4759L55.5796 95.9479L54.1947 104.643L55.5857 104.27ZM56.5561 98.1088L56.7131 96.8865L56.8058 96.8617L57.5529 97.8417L59.2413 99.9237L56.1349 100.756L56.5561 98.1088ZM67.3274 101.124L65.5478 94.482L68.5963 93.6652L68.295 92.5409L60.9462 94.5099L61.2475 95.6343L64.3076 94.8143L66.0872 101.456L67.3274 101.124ZM77.3211 98.4459L77.0198 97.3216L72.0588 98.6509L71.4625 96.4254L76.2496 95.1427L75.9515 94.03L71.1643 95.3127L70.5804 93.1335L75.5414 91.8042L75.2402 90.6799L69.0273 92.3446L71.1082 100.111L77.3211 98.4459Z" fill="white"/>
<path d="M59.2416 132.129L59.7119 128.939L66.1836 127.205L68.1668 129.738L71.4896 128.847L62.3224 117.431L58.1883 118.539L55.9961 132.999L59.2416 132.129ZM60.5949 122.884L60.8486 120.663L61.0611 120.606L62.3915 122.403L64.3643 124.897L60.1336 126.031L60.5949 122.884ZM77.1049 127.55C80.0993 126.748 81.575 125.068 81.0884 123.252C80.6587 121.649 79.4599 121.039 76.7935 121.442L74.6592 121.745C73.3427 121.932 73.0153 121.792 72.8808 121.29C72.7151 120.672 73.0149 120.322 74.4638 119.934C76.2411 119.458 76.7361 119.76 76.9484 120.552L76.9794 120.668L79.8772 119.891L79.8617 119.833C79.2302 117.477 77.1126 116.76 73.9444 117.609C70.6216 118.5 69.535 120.24 69.9906 121.94C70.4254 123.563 71.7401 124.142 73.7289 123.837L76.5408 123.436C77.722 123.285 78.0532 123.362 78.1982 123.903C78.3535 124.482 78.0537 124.832 76.5082 125.246C74.8662 125.686 74.2631 125.599 74.0302 124.73L73.9836 124.556L71.0858 125.332L71.1013 125.39C71.7018 127.631 73.8401 128.425 77.1049 127.55ZM88.8919 124.185L85.4237 111.241L82.526 112.018L85.9941 124.961L88.8919 124.185ZM95.6185 122.589C98.922 121.704 100.616 119.138 99.7978 116.086C98.9695 112.995 96.2251 111.639 92.9216 112.524C89.6182 113.409 87.9193 115.956 88.7476 119.047C89.5654 122.099 92.3151 123.474 95.6185 122.589ZM94.9301 120.02C92.9596 120.548 92.0816 119.976 91.626 118.276C91.1705 116.576 91.6344 115.602 93.6049 115.074C95.5561 114.551 96.4638 115.157 96.9193 116.857C97.3748 118.557 96.8812 119.497 94.9301 120.02ZM107.762 119.128L108.195 114.022L108.215 111.16L108.427 111.103L109.856 113.577L112.765 117.788L116.378 116.82L116.528 106.406L113.572 107.198L113.637 111.922L114.019 115.05L113.826 115.102L112.168 112.005L109.612 108.259L105.883 109.258L105.523 113.786L105.635 117.296L105.442 117.348L104.229 114.443L101.904 110.325L98.9092 111.127L104.149 120.096L107.762 119.128ZM125.903 114.474C128.048 113.9 129.157 112.629 129.197 111.004L129.352 110.962L129.947 113.184L132.652 112.459L131.13 106.779C130.452 104.249 128.481 102.996 125.254 103.861C122.067 104.715 120.503 106.915 121.145 109.31L121.16 109.368L124.077 108.586L124.057 108.509C123.762 107.408 124.257 106.861 125.725 106.468C127.271 106.054 127.924 106.251 128.26 107.507L128.359 107.874L124.319 109.412C122.309 110.178 121.485 111.352 121.868 112.781C122.303 114.404 123.817 115.033 125.903 114.474ZM124.733 111.806C124.609 111.343 124.866 111.067 125.546 110.822L128.804 109.535C129.094 110.928 128.156 111.676 126.185 112.204C125.335 112.432 124.873 112.328 124.733 111.806ZM139.06 110.949C142.054 110.147 143.53 108.468 143.043 106.652C142.614 105.048 141.415 104.438 138.749 104.842L136.614 105.144C135.298 105.331 134.97 105.191 134.836 104.689C134.67 104.071 134.97 103.721 136.419 103.333C138.196 102.857 138.691 103.159 138.903 103.951L138.935 104.067L141.832 103.291L141.817 103.233C141.185 100.876 139.068 100.159 135.899 101.008C132.577 101.899 131.49 103.639 131.946 105.339C132.38 106.962 133.695 107.541 135.684 107.236L138.496 106.835C139.677 106.684 140.008 106.761 140.153 107.302C140.309 107.881 140.009 108.231 138.463 108.645C136.821 109.085 136.218 108.998 135.985 108.129L135.939 107.955L133.041 108.731L133.056 108.789C133.657 111.03 135.795 111.824 139.06 110.949ZM159.115 105.368L158.417 102.76L153.355 104.116L150.062 105.351C149.788 104.327 150.288 103.799 151.441 103.076L154.054 101.548C156.182 100.294 157.384 98.7509 156.768 96.452C156.11 93.9986 154.05 92.6457 150.148 93.6914C145.84 94.8457 144.731 97.586 145.404 100.097L145.471 100.349L148.311 99.5876L148.244 99.3365C147.861 97.9069 148.384 97.0006 150.76 96.3639C152.885 95.7945 153.576 96.2098 153.84 97.195C154.068 98.0451 153.746 98.5453 152.696 99.2616L149.663 101.234C147.183 102.872 146.513 104.314 147.124 106.594L147.621 108.448L159.115 105.368ZM163.917 104.082L163.011 100.701L159.283 101.7L160.189 105.081L163.917 104.082ZM171.115 102.36C174.844 101.361 176.962 99.5302 176.274 96.9608C175.751 95.0097 174.252 94.4382 172.343 94.577L172.286 94.3645C173.947 93.6089 174.659 92.4034 174.25 90.8773C173.691 88.7909 171.369 88.0052 167.524 89.0353C163.719 90.0551 162.081 91.9019 162.64 93.9883C163.049 95.5144 164.288 96.1971 166.065 96.0313L166.122 96.2438C164.535 97.0419 163.387 98.3226 163.91 100.274C164.598 102.843 167.329 103.374 171.115 102.36ZM168.989 94.5024C166.787 95.0926 165.978 94.8539 165.734 93.9459C165.486 93.0186 165.99 92.428 168.27 91.8172C170.607 91.1908 171.301 91.4605 171.549 92.3878C171.792 93.2958 171.23 93.902 168.989 94.5024ZM170.351 99.5832C167.839 100.256 166.986 100.009 166.686 98.888C166.396 97.8062 166.992 97.1704 169.522 96.4923C172.053 95.8141 172.887 96.0669 173.177 97.1488C173.477 98.2693 172.843 98.9155 170.351 99.5832ZM184.44 98.7896C188.555 97.687 189.961 95.3638 189.211 92.5626C188.497 89.8966 186.498 88.7756 183.311 89.6297C180.896 90.2768 179.778 91.5909 179.516 92.4686L179.337 92.4958L178.837 89.0064L186.931 86.8375L186.233 84.2295L175.569 87.0868L176.822 94.7019L179.567 94.0493L179.562 94.0299L179.78 93.9923C180.062 93.1919 180.971 92.7206 182.748 92.2444C184.951 91.6543 185.766 91.9947 186.15 93.4243C186.527 94.8345 185.991 95.5373 183.769 96.1326C181.316 96.79 180.419 96.5334 180.124 95.4322L180.077 95.2584L177.083 96.0607L177.13 96.2346C177.89 99.0744 180.383 99.8766 184.44 98.7896ZM192.914 89.1271C195.078 88.5473 195.987 86.9165 195.469 84.9846C194.951 83.0528 193.344 82.0756 191.18 82.6554C189.036 83.2299 188.132 84.8801 188.65 86.8119C189.167 88.7438 190.77 89.7016 192.914 89.1271ZM194.788 95.8099L202.312 79.9211L199.51 80.6717L191.986 96.5605L194.788 95.8099ZM192.407 87.2338C191.402 87.503 190.975 87.224 190.717 86.258C190.458 85.2921 190.683 84.8177 191.687 84.5486C192.711 84.2742 193.143 84.5726 193.402 85.5385C193.661 86.5044 193.431 86.9595 192.407 87.2338ZM203.094 93.8121C205.238 93.2375 206.166 91.6015 205.648 89.6697C205.131 87.7378 203.509 86.7851 201.365 87.3597C199.22 87.9343 198.292 89.5702 198.81 91.5021C199.327 93.4339 200.949 94.3866 203.094 93.8121ZM202.586 91.9189C201.582 92.188 201.136 91.9141 200.877 90.9482C200.618 89.9823 200.862 89.5027 201.867 89.2336C202.871 88.9644 203.323 89.2576 203.581 90.2235C203.84 91.1895 203.591 91.6497 202.586 91.9189Z" fill="white"/>
<circle cx="260" cy="56.5" r="27.5" fill="#72F3E7"/>
<rect x="316.018" y="46" width="296" height="82" rx="41" transform="rotate(9.48876 316.018 46)" fill="#B68C06"/>
<rect x="316.018" y="37.4766" width="296" height="82" rx="41" transform="rotate(9.48876 316.018 37.4766)" fill="#EAB308"/>
<path d="M405.885 81.4637L407.153 79.5647L411.338 80.2917L411.891 82.5071L413.333 82.7576L411.174 74.2222L409.377 73.91L404.466 81.2172L405.885 81.4637ZM409.355 76.2812L410.011 75.2381L410.106 75.2545L410.372 76.4578L411.029 79.0566L407.86 78.5062L409.355 76.2812ZM415.201 83.0822L416.045 78.2229L416.197 77.0679L416.292 77.0843L416.578 78.3154L418.003 83.0816L419.54 83.3486L422.489 79.3423L423.173 78.2797L423.268 78.2961L423.021 79.4347L422.177 84.2939L423.454 84.5158L424.83 76.5944L423.092 76.2925L420.037 80.4875L419.054 82.0097L418.959 81.9933L418.523 80.2246L417.039 75.2409L415.301 74.939L413.924 82.8603L415.201 83.0822ZM428.508 85.5156C431.015 85.951 432.926 84.6265 433.355 82.1555C433.784 79.6846 432.432 77.7932 429.925 77.3578C427.443 76.9265 425.52 78.2489 425.091 80.7199C424.661 83.1909 426.025 85.0843 428.508 85.5156ZM428.722 84.286C426.842 83.9595 426.095 82.9285 426.438 80.954C426.781 78.9796 427.834 78.249 429.714 78.5755C431.594 78.9021 432.35 79.947 432.007 81.9214C431.664 83.8958 430.602 84.6126 428.722 84.286ZM437.255 87.035C439.631 87.4479 441.197 86.4288 441.57 84.277L442.376 79.6424L441.099 79.4206L440.308 83.9724C440.031 85.5685 439.206 86.1074 437.468 85.8054C435.73 85.5035 435.136 84.7182 435.413 83.1221L436.204 78.5703L434.939 78.3505L434.134 82.9851C433.76 85.1369 434.89 86.6243 437.255 87.035ZM443.408 87.9822L444.215 83.3357L444.406 81.9561L444.501 81.9725L445.251 83.5401L448.019 88.7832L449.39 89.0214L450.766 81.1L449.489 80.8782L448.676 85.5601L448.487 87.001L448.392 86.9845L447.62 85.328L444.878 80.0772L443.507 79.839L442.131 87.7603L443.408 87.9822ZM454.508 89.9105L455.685 83.1359L458.794 83.6761L458.993 82.5293L451.498 81.2271L451.299 82.3739L454.42 82.9162L453.243 89.6907L454.508 89.9105ZM464.254 91.7253C466.761 92.1608 468.671 90.8363 469.101 88.3653C469.53 85.8943 468.178 84.0029 465.671 83.5675C463.188 83.1362 461.266 84.4586 460.836 86.9296C460.407 89.4006 461.771 91.294 464.254 91.7253ZM464.468 90.4958C462.588 90.1692 461.841 89.1382 462.184 87.1638C462.527 85.1893 463.58 84.4587 465.46 84.7853C467.34 85.1118 468.096 86.1567 467.753 88.1311C467.41 90.1056 466.348 90.8223 464.468 90.4958ZM470.633 92.7117L471.185 89.5313L476.033 90.3734L476.23 89.2384L471.383 88.3963L471.81 85.9371L476.834 86.81L477.034 85.6632L470.732 84.5685L469.356 92.4898L470.633 92.7117ZM482.461 94.8882C484.707 95.2785 486.462 94.3652 486.792 92.4617L486.819 92.308L485.412 92.0636L485.385 92.2173C485.174 93.4351 484.294 93.94 482.686 93.6607C480.83 93.3382 480.084 92.3073 480.427 90.3328C480.77 88.3584 481.822 87.6278 483.678 87.9502C485.286 88.2296 485.942 89.0133 485.732 90.2193L485.704 90.3848L487.111 90.6292L487.139 90.4637C487.468 88.572 486.113 87.1186 483.878 86.7304C481.419 86.3032 479.508 87.6277 479.079 90.0987C478.65 92.5697 480.002 94.461 482.461 94.8882ZM488.494 95.8145L489.028 92.7406L490.482 92.9932C491.476 93.1657 491.797 93.4895 492.043 94.1777L492.928 96.5847L494.394 96.8394L493.468 94.3157C493.271 93.7699 493.049 93.3659 492.463 93.0936L492.477 93.0108C493.981 93.1868 494.984 92.5328 495.212 91.2205C495.468 89.7426 494.505 88.6983 492.708 88.3861L488.593 87.6713L487.217 95.5927L488.494 95.8145ZM489.671 89.04L492.497 89.5309C493.561 89.7157 494.025 90.1983 493.857 91.1678C493.684 92.1609 493.088 92.435 492.024 92.2501L489.199 91.7593L489.671 89.04ZM501.498 98.0735L501.697 96.9267L496.637 96.0476L497.031 93.7776L501.914 94.6259L502.111 93.4909L497.229 92.6426L497.615 90.4199L502.675 91.299L502.874 90.1522L496.537 89.0513L495.161 96.9726L501.498 98.0735ZM506.169 98.885C508.629 99.3122 510.44 98.068 510.865 95.6206C511.291 93.1733 510.005 91.3909 507.546 90.9637L503.94 90.3372L502.563 98.2586L506.169 98.885ZM507.346 92.1105C509.179 92.4288 509.871 93.3529 509.518 95.3865C509.164 97.42 508.201 98.0566 506.369 97.7382L504.028 97.3315L505.005 91.7038L507.346 92.1105ZM512.406 99.9684L513.782 92.047L512.505 91.8252L511.129 99.7466L512.406 99.9684ZM517.525 100.858L518.702 94.0832L521.811 94.6234L522.011 93.4765L514.515 92.1744L514.316 93.3212L517.437 93.8634L516.26 100.638L517.525 100.858Z" fill="white"/>
<path d="M397.534 108.052L399.301 105.354L405.902 106.501L406.637 109.633L410.026 110.222L406.507 96.0098L402.29 95.2773L394.223 107.477L397.534 108.052ZM402.647 100.232L403.811 98.3226L404.028 98.3602L404.48 100.55L405.222 103.642L400.906 102.893L402.647 100.232ZM415.667 111.405C418.721 111.935 420.766 111.032 421.088 109.18C421.372 107.544 420.541 106.486 417.952 105.732L415.888 105.11C414.615 104.726 414.376 104.461 414.465 103.949C414.575 103.319 414.994 103.127 416.472 103.384C418.285 103.699 418.607 104.181 418.466 104.989L418.446 105.107L421.402 105.621L421.412 105.562C421.829 103.158 420.209 101.618 416.978 101.056C413.588 100.468 411.871 101.59 411.57 103.324C411.282 104.979 412.231 106.058 414.164 106.617L416.885 107.435C418.02 107.794 418.288 108.003 418.192 108.555C418.089 109.146 417.67 109.337 416.094 109.063C414.419 108.772 413.909 108.44 414.063 107.553L414.093 107.376L411.138 106.863L411.127 106.922C410.73 109.207 412.337 110.826 415.667 111.405ZM427.777 113.305L430.07 100.103L427.115 99.5898L424.821 112.792L427.777 113.305ZM434.551 114.685C437.92 115.271 440.536 113.654 441.077 110.541C441.624 107.388 439.704 105.004 436.334 104.419C432.965 103.834 430.353 105.43 429.805 108.583C429.264 111.696 431.181 114.1 434.551 114.685ZM435.006 112.065C432.996 111.715 432.44 110.827 432.741 109.093C433.043 107.359 433.873 106.671 435.883 107.02C437.873 107.366 438.442 108.297 438.14 110.031C437.839 111.765 436.996 112.41 435.006 112.065ZM447.024 116.649L449.563 112.198L450.784 109.609L451.001 109.646L451.258 112.492L452.128 117.536L455.812 118.176L460.325 108.79L457.311 108.266L455.384 112.58L454.416 115.579L454.219 115.544L454.016 112.038L453.271 107.564L449.468 106.904L447.238 110.86L445.864 114.093L445.667 114.059L445.788 110.913L445.409 106.198L442.355 105.668L443.339 116.009L447.024 116.649ZM465.442 120.052C467.629 120.432 469.169 119.745 469.889 118.287L470.047 118.314L469.653 120.58L472.412 121.059L473.418 115.266C473.867 112.685 472.604 110.72 469.314 110.148C466.062 109.583 463.719 110.922 463.294 113.365L463.284 113.424L466.259 113.941L466.273 113.863C466.468 112.739 467.148 112.451 468.645 112.712C470.221 112.985 470.731 113.439 470.509 114.72L470.444 115.095L466.132 114.792C463.986 114.643 462.745 115.361 462.491 116.819C462.204 118.474 463.313 119.682 465.442 120.052ZM465.501 117.139C465.583 116.666 465.933 116.524 466.652 116.588L470.149 116.789C469.828 118.175 468.662 118.459 466.652 118.11C465.785 117.959 465.409 117.671 465.501 117.139ZM478.861 122.383C481.915 122.913 483.96 122.01 484.282 120.158C484.566 118.522 483.735 117.464 481.146 116.71L479.082 116.088C477.809 115.704 477.571 115.439 477.66 114.927C477.769 114.297 478.188 114.105 479.666 114.362C481.479 114.677 481.801 115.159 481.661 115.967L481.64 116.086L484.596 116.599L484.606 116.54C485.024 114.136 483.403 112.596 480.172 112.034C476.782 111.446 475.065 112.568 474.764 114.302C474.476 115.957 475.426 117.036 477.358 117.595L480.079 118.413C481.214 118.772 481.482 118.981 481.386 119.533C481.284 120.124 480.865 120.315 479.288 120.041C477.613 119.75 477.103 119.418 477.257 118.531L477.288 118.354L474.332 117.841L474.322 117.9C473.924 120.185 475.531 121.804 478.861 122.383ZM499.405 125.749L499.867 123.088L494.704 122.192L491.198 121.928C491.379 120.883 492.055 120.615 493.404 120.443L496.418 120.155C498.876 119.912 500.615 119.016 501.022 116.672C501.457 114.169 500.156 112.075 496.176 111.384C491.781 110.621 489.624 112.641 489.179 115.203L489.134 115.459L492.031 115.962L492.075 115.706C492.329 114.248 493.184 113.645 495.608 114.066C497.776 114.443 498.228 115.11 498.054 116.115C497.903 116.982 497.401 117.301 496.147 117.509L492.566 118.024C489.627 118.468 488.413 119.495 488.009 121.82L487.68 123.712L499.405 125.749ZM504.302 126.599L504.901 123.151L501.098 122.49L500.499 125.939L504.302 126.599ZM511.558 128.063C515.361 128.723 518.052 127.953 518.508 125.332C518.853 123.342 517.733 122.193 515.943 121.517L515.98 121.3C517.805 121.312 518.958 120.518 519.229 118.961C519.598 116.833 517.821 115.144 513.9 114.463C510.018 113.789 507.756 114.776 507.386 116.904C507.115 118.461 507.953 119.601 509.635 120.198L509.598 120.414C507.822 120.471 506.242 121.151 505.896 123.141C505.441 125.762 507.695 127.392 511.558 128.063ZM512.931 120.039C510.685 119.649 510.051 119.093 510.212 118.166C510.376 117.221 511.082 116.897 513.407 117.301C515.791 117.715 516.307 118.251 516.143 119.197C515.982 120.123 515.217 120.437 512.931 120.039ZM512.031 125.222C509.469 124.777 508.799 124.194 508.998 123.051C509.189 121.947 509.997 121.621 512.579 122.069C515.16 122.518 515.81 123.097 515.619 124.201C515.42 125.344 514.573 125.663 512.031 125.222ZM525.149 130.424C529.346 131.153 531.599 129.636 532.095 126.779C532.567 124.06 531.226 122.203 527.974 121.638C525.511 121.21 523.944 121.932 523.338 122.619L523.164 122.568L524.177 119.192L532.433 120.626L532.895 117.966L522.018 116.076L519.955 123.513L522.72 124.074L522.723 124.055L522.936 124.112C523.529 123.505 524.552 123.459 526.365 123.774C528.611 124.164 529.208 124.816 528.955 126.274C528.705 127.713 527.923 128.125 525.657 127.731C523.155 127.296 522.449 126.687 522.644 125.563L522.674 125.386L519.62 124.855L519.589 125.033C519.086 127.929 521.011 129.705 525.149 130.424ZM536.899 125.218C539.106 125.602 540.616 124.504 540.959 122.533C541.301 120.563 540.253 119 538.046 118.617C535.859 118.237 534.345 119.355 534.003 121.325C533.661 123.296 534.712 124.838 536.899 125.218ZM535.79 132.069L549.296 120.815L546.439 120.319L532.933 131.573L535.79 132.069ZM537.235 123.287C536.21 123.109 535.94 122.677 536.111 121.691C536.283 120.706 536.686 120.37 537.711 120.548C538.755 120.73 539.022 121.182 538.85 122.167C538.679 123.152 538.279 123.469 537.235 123.287ZM544.167 133.748C546.354 134.128 547.884 133.034 548.226 131.063C548.568 129.093 547.497 127.546 545.31 127.166C543.123 126.787 541.593 127.881 541.251 129.851C540.908 131.822 541.979 133.368 544.167 133.748ZM544.502 131.817C543.477 131.639 543.188 131.203 543.359 130.218C543.53 129.232 543.953 128.9 544.978 129.078C546.003 129.256 546.289 129.712 546.118 130.697C545.947 131.682 545.527 131.995 544.502 131.817Z" fill="white"/>
<circle cx="353" cy="84.5" r="27.5" fill="#FCE49C"/>
<rect x="602.5" y="78.5869" width="296" height="82" rx="41" transform="rotate(-14.9952 602.5 78.5869)" fill="#1043B2"/>
<rect x="602.5" y="86.6211" width="296" height="82" rx="41" transform="rotate(-14.9952 602.5 86.6211)" fill="#2563EB"/>
<circle cx="656" cy="113.5" r="27.5" fill="#A2BCF6"/>
<path d="M714.369 88.503L712.58 87.2057C714.224 86.2932 714.934 84.5871 714.397 82.5818C713.748 80.1593 711.726 79.0115 709.269 79.67C706.835 80.3222 705.646 82.3303 706.295 84.7528C706.929 87.1174 708.889 88.2691 711.261 87.7082L712.792 88.9254L714.369 88.503ZM711.089 86.4623C709.246 86.9562 708.135 86.3345 707.616 84.3988C707.098 82.463 707.746 81.3577 709.589 80.8638C711.432 80.37 712.557 81.0002 713.076 82.9359C713.594 84.8716 712.932 85.9685 711.089 86.4623ZM719.987 85.3702C722.317 84.7459 723.309 83.1632 722.744 81.0536L721.526 76.5099L720.274 76.8453L721.47 81.3079C721.889 82.8727 721.368 83.7081 719.664 84.1647C717.96 84.6212 717.09 84.1585 716.671 82.5937L715.475 78.1311L714.235 78.4634L715.453 83.0072C716.018 85.1167 717.669 85.9913 719.987 85.3702ZM725.968 83.6432L723.887 75.8772L722.635 76.2126L724.716 83.9787L725.968 83.6432ZM730.937 82.436C733.139 81.8459 734.347 80.28 733.847 78.4138L733.807 78.2631L732.427 78.6327L732.468 78.7834C732.788 79.9773 732.202 80.8051 730.626 81.2275C728.806 81.7151 727.695 81.0934 727.176 79.1577C726.658 77.222 727.306 76.1166 729.126 75.629C730.702 75.2066 731.626 75.6422 731.943 76.8245L731.986 76.9868L733.366 76.6172L733.322 76.4549C732.825 74.6003 730.985 73.8512 728.794 74.4382C726.383 75.0842 725.206 77.0892 725.855 79.5117C726.504 81.9343 728.526 83.0821 730.937 82.436ZM736.801 80.7406L735.931 77.4951L738.307 76.8584L741.414 79.5045L742.898 79.107L739.144 75.9012L740.828 71.3378L739.345 71.7354L737.961 75.6592L735.608 76.2896L734.72 72.9746L733.468 73.31L735.549 81.0761L736.801 80.7406ZM751.768 76.7301L751.467 75.6058L746.506 76.9351L745.91 74.7096L750.697 73.4269L750.399 72.3141L745.611 73.5968L745.028 71.4177L749.989 70.0884L749.687 68.9641L743.474 70.6288L745.555 78.3949L751.768 76.7301ZM753.555 76.2515L753.907 73.9955L758.01 72.896L759.443 74.6737L760.857 74.2948L755.31 67.4574L753.548 67.9295L752.164 76.6242L753.555 76.2515ZM754.525 70.0904L754.682 68.8681L754.775 68.8432L755.522 69.8233L757.21 71.9052L754.104 72.7376L754.525 70.0904ZM764.725 73.3827C767.02 72.7677 767.69 71.4204 767.373 70.2381C767.069 69.1022 766.114 68.6001 764.486 68.7381L762.51 68.9198C761.542 68.9681 761.089 68.8535 760.908 68.1812C760.722 67.4857 761.185 66.9889 762.599 66.61C764.211 66.1783 764.906 66.5013 765.16 67.4518L765.201 67.6025L766.441 67.2702L766.422 67.2006C766.016 65.6822 764.68 64.8227 762.408 65.4314C759.997 66.0774 759.374 67.4618 759.675 68.5861C760.017 69.8612 761.106 70.2154 762.478 70.0963L764.462 69.8999C765.497 69.8214 765.96 69.9708 766.14 70.6431C766.335 71.3733 765.901 71.8376 764.417 72.2352C762.713 72.6917 762.044 72.374 761.796 71.4468L761.746 71.2613L760.494 71.5967L760.513 71.6663C760.951 73.3006 762.406 74.0038 764.725 73.3827ZM772.827 71.0875L772.116 68.4331L774.2 62.3959L772.658 62.809L771.578 66.0553L771.204 67.2114L771.112 67.2362L770.198 66.4249L767.628 64.1569L766.098 64.5669L770.869 68.7423L771.587 71.4198L772.827 71.0875Z" fill="white"/>
<path d="M716.242 116.089L716.712 112.899L723.184 111.165L725.167 113.698L728.49 112.807L719.322 101.391L715.188 102.499L712.996 116.959L716.242 116.089ZM717.595 106.844L717.849 104.623L718.061 104.566L719.391 106.363L721.364 108.857L717.134 109.991L717.595 106.844ZM734.105 111.51C737.099 110.708 738.575 109.028 738.088 107.212C737.659 105.609 736.46 104.998 733.794 105.402L731.659 105.705C730.343 105.892 730.015 105.752 729.881 105.25C729.715 104.632 730.015 104.282 731.464 103.894C733.241 103.418 733.736 103.72 733.948 104.512L733.979 104.628L736.877 103.851L736.862 103.793C736.23 101.437 734.113 100.72 730.944 101.569C727.622 102.459 726.535 104.2 726.991 105.9C727.425 107.523 728.74 108.102 730.729 107.797L733.541 107.396C734.722 107.245 735.053 107.322 735.198 107.863C735.353 108.442 735.054 108.792 733.508 109.206C731.866 109.646 731.263 109.559 731.03 108.69L730.984 108.516L728.086 109.292L728.101 109.35C728.702 111.591 730.84 112.385 734.105 111.51ZM745.892 108.144L742.424 95.2011L739.526 95.9775L742.994 108.921L745.892 108.144ZM752.619 106.549C755.922 105.664 757.616 103.098 756.798 100.046C755.97 96.9549 753.225 95.5991 749.922 96.4842C746.618 97.3694 744.919 99.9158 745.748 103.007C746.565 106.059 749.315 107.434 752.619 106.549ZM751.93 103.98C749.96 104.508 749.082 103.936 748.626 102.236C748.171 100.535 748.634 99.5622 750.605 99.0343C752.556 98.5114 753.464 99.1172 753.919 100.817C754.375 102.517 753.881 103.457 751.93 103.98ZM764.762 103.088L765.195 97.9822L765.215 95.1196L765.427 95.0626L766.856 97.5371L769.765 101.748L773.378 100.78L773.528 90.3661L770.572 91.158L770.637 95.8822L771.019 99.0098L770.826 99.0615L769.168 95.9651L766.612 92.2192L762.883 93.2182L762.523 97.7458L762.635 101.256L762.442 101.308L761.229 98.4031L758.904 94.2846L755.909 95.0869L761.149 104.056L764.762 103.088ZM782.903 98.4343C785.048 97.8598 786.157 96.5894 786.197 94.9635L786.352 94.9221L786.947 97.1438L789.652 96.4191L788.13 90.7394C787.452 88.2087 785.481 86.9562 782.254 87.8207C779.067 88.6748 777.503 90.8745 778.145 93.27L778.16 93.328L781.077 92.5463L781.057 92.4691C780.762 91.3679 781.257 90.8211 782.725 90.4277C784.271 90.0136 784.924 90.2112 785.26 91.4669L785.359 91.8339L781.319 93.3719C779.309 94.1382 778.485 95.3116 778.868 96.7412C779.303 98.3639 780.817 98.9934 782.903 98.4343ZM781.733 95.7663C781.609 95.3027 781.866 95.0267 782.546 94.7824L785.804 93.4953C786.094 94.8877 785.156 95.636 783.185 96.164C782.335 96.3917 781.873 96.2879 781.733 95.7663ZM796.06 94.9091C799.054 94.1067 800.53 92.4276 800.043 90.6116C799.614 89.0082 798.415 88.3977 795.749 88.8015L793.614 89.1043C792.298 89.2914 791.97 89.1513 791.836 88.649C791.67 88.0308 791.97 87.6814 793.419 87.2931C795.196 86.8169 795.691 87.1191 795.903 87.9111L795.935 88.027L798.832 87.2506L798.817 87.1926C798.185 84.8358 796.068 84.1194 792.899 84.9683C789.577 85.8587 788.49 87.5992 788.946 89.2992C789.38 90.922 790.695 91.5014 792.684 91.1963L795.496 90.7949C796.677 90.644 797.008 90.7209 797.153 91.2618C797.309 91.8414 797.009 92.1909 795.463 92.605C793.821 93.045 793.218 92.9581 792.985 92.0888L792.939 91.9149L790.041 92.6913L790.056 92.7493C790.657 94.9902 792.795 95.7839 796.06 94.9091ZM816.115 89.3282L815.417 86.7202L810.355 88.0764L807.062 89.3107C806.788 88.2868 807.288 87.7593 808.441 87.0364L811.054 85.508C813.182 84.2545 814.384 82.7109 813.768 80.412C813.11 77.9585 811.05 76.6057 807.148 77.6513C802.84 78.8057 801.731 81.546 802.404 84.0574L802.471 84.3085L805.311 83.5476L805.244 83.2964C804.861 81.8669 805.384 80.9606 807.76 80.3239C809.885 79.7545 810.576 80.1698 810.84 81.155C811.068 82.005 810.746 82.5053 809.696 83.2215L806.663 85.1937C804.183 86.8315 803.513 88.274 804.124 90.5536L804.621 92.4081L816.115 89.3282ZM820.917 88.0416L820.011 84.6608L816.283 85.6599L817.189 89.0406L820.917 88.0416ZM828.115 86.3199C831.844 85.3208 833.962 83.4902 833.274 80.9208C832.751 78.9696 831.252 78.3981 829.343 78.537L829.286 78.3245C830.947 77.5688 831.659 76.3634 831.25 74.8372C830.691 72.7508 828.369 71.9652 824.524 72.9953C820.719 74.015 819.081 75.8618 819.64 77.9482C820.049 79.4744 821.288 80.157 823.065 79.9913L823.122 80.2038C821.535 81.0018 820.387 82.2825 820.91 84.2337C821.598 86.8031 824.329 87.3344 828.115 86.3199ZM825.989 78.4624C823.787 79.0525 822.978 78.8139 822.734 77.9059C822.486 76.9786 822.99 76.3879 825.27 75.7771C827.607 75.1508 828.301 75.4205 828.549 76.3478C828.792 77.2558 828.23 77.8619 825.989 78.4624ZM827.351 83.5432C824.839 84.2161 823.986 83.9685 823.686 82.848C823.396 81.7662 823.992 81.1303 826.522 80.4522C829.053 79.7741 829.887 80.0269 830.177 81.1087C830.477 82.2292 829.843 82.8754 827.351 83.5432ZM841.44 82.7495C845.555 81.647 846.961 79.3237 846.211 76.5226C845.497 73.8566 843.498 72.7356 840.311 73.5897C837.896 74.2367 836.778 75.5509 836.516 76.4285L836.337 76.4558L835.837 72.9663L843.931 70.7974L843.233 68.1894L832.569 71.0468L833.822 78.6618L836.567 78.0092L836.562 77.9899L836.78 77.9523C837.062 77.1519 837.971 76.6806 839.748 76.2043C841.951 75.6142 842.766 75.9547 843.15 77.3842C843.527 78.7945 842.991 79.4973 840.769 80.0925C838.316 80.7499 837.419 80.4934 837.124 79.3922L837.077 79.2183L834.083 80.0207L834.13 80.1945C834.89 83.0344 837.383 83.8366 841.44 82.7495ZM849.914 73.087C852.078 72.5073 852.987 70.8765 852.469 68.9446C851.951 67.0128 850.344 66.0356 848.18 66.6153C846.036 67.1899 845.132 68.84 845.65 70.7719C846.167 72.7037 847.77 73.6616 849.914 73.087ZM851.788 79.7698L859.312 63.8811L856.51 64.6316L848.986 80.5204L851.788 79.7698ZM849.407 71.1938C848.402 71.463 847.975 71.1839 847.717 70.218C847.458 69.2521 847.683 68.7777 848.687 68.5085C849.711 68.2342 850.143 68.5326 850.402 69.4985C850.661 70.4644 850.431 70.9195 849.407 71.1938ZM860.094 77.772C862.238 77.1974 863.166 75.5615 862.648 73.6296C862.131 71.6978 860.509 70.7451 858.365 71.3196C856.22 71.8942 855.292 73.5302 855.81 75.4621C856.327 77.3939 857.949 78.3466 860.094 77.772ZM859.586 75.8788C858.582 76.148 858.136 75.8741 857.877 74.9082C857.618 73.9423 857.862 73.4627 858.867 73.1935C859.871 72.9244 860.323 73.2176 860.581 74.1835C860.84 75.1494 860.591 75.6096 859.586 75.8788Z" fill="white"/>
<rect x="915.019" y="47" width="296" height="82" rx="41" transform="rotate(9.48876 915.019 47)" fill="#A90A25"/>
<rect x="915.019" y="38" width="296" height="82" rx="41" transform="rotate(9.48876 915.019 38)" fill="#F43F5E"/>
<circle cx="1154" cy="118.5" r="27.5" fill="#F99FAE"/>
<path d="M961.831 74.3673L962.058 73.2256L957.197 72.2591L958.538 65.5151L957.267 65.2624L955.699 73.148L961.831 74.3673ZM966.501 75.4183C968.996 75.9144 970.939 74.6367 971.428 72.1768C971.917 69.717 970.611 67.7934 968.116 67.2972C965.644 66.8058 963.69 68.0812 963.201 70.541C962.712 73.0009 964.029 74.9268 966.501 75.4183ZM966.744 74.1942C964.873 73.8221 964.152 72.7733 964.543 70.8078C964.933 68.8423 966.003 68.1374 967.875 68.5095C969.746 68.8816 970.477 69.9445 970.086 71.91C969.695 73.8756 968.616 74.5663 966.744 74.1942ZM972.407 76.4702L973.72 74.6025L977.887 75.4309L978.386 77.659L979.822 77.9445L977.87 69.3592L976.082 69.0034L970.994 76.1894L972.407 76.4702ZM976.002 71.3734L976.683 70.3466L976.777 70.3653L977.014 71.5747L977.608 74.1886L974.453 73.5614L976.002 71.3734ZM981.681 78.3143L982.601 73.6888L982.825 72.3142L982.919 72.3329L983.632 73.9183L986.271 79.2269L987.637 79.4984L989.205 71.6128L987.933 71.36L987.007 76.0208L986.782 77.4566L986.688 77.4379L985.957 75.7631L983.343 70.4474L981.978 70.1759L980.41 78.0615L981.681 78.3143ZM994.743 80.9113L996.084 74.1674L999.179 74.7828L999.406 73.6412L991.944 72.1575L991.717 73.2991L994.824 73.917L993.483 80.6609L994.743 80.9113ZM1004.89 82.929L1005.12 81.7874L1000.08 80.7857L1000.53 78.526L1005.39 79.4925L1005.61 78.3626L1000.75 77.3961L1001.19 75.1834L1006.23 76.185L1006.46 75.0434L1000.15 73.789L998.582 81.6747L1004.89 82.929ZM1007.15 83.3786L1007.76 80.3185L1009.21 80.6063C1010.2 80.8029 1010.51 81.1344 1010.74 81.8284L1011.57 84.2562L1013.02 84.5464L1012.16 82.001C1011.98 81.4505 1011.76 81.0412 1011.18 80.7547L1011.2 80.6724C1012.7 80.8848 1013.72 80.2553 1013.98 78.9489C1014.27 77.4777 1013.33 76.4103 1011.54 76.0546L1007.45 75.2402L1005.88 83.1259L1007.15 83.3786ZM1008.49 76.6346L1011.31 77.1939C1012.36 77.4045 1012.82 77.8982 1012.63 78.8634C1012.43 79.852 1011.83 80.1116 1010.77 79.9009L1007.95 79.3416L1008.49 76.6346ZM1015.06 84.9509L1016.02 80.1136L1016.2 78.9626L1016.3 78.9813L1016.55 80.2189L1017.86 85.0184L1019.39 85.3226L1022.44 81.389L1023.14 80.3433L1023.24 80.362L1022.96 81.4943L1022 86.3316L1023.27 86.5844L1024.84 78.6987L1023.11 78.3547L1019.96 82.4744L1018.94 83.9723L1018.84 83.9535L1018.45 82.1748L1017.09 77.1566L1015.36 76.8125L1013.79 84.6982L1015.06 84.9509Z" fill="white"/>
<path d="M956.684 102.756C960.98 103.61 963.566 101.881 964.268 98.3505L965.79 90.7003L962.847 90.1153L961.369 97.5497C960.924 99.7859 959.94 100.426 957.253 99.892C954.585 99.3616 953.902 98.3896 954.346 96.1534L955.825 88.7189L952.882 88.1339L951.361 95.7841C950.659 99.315 952.407 101.906 956.684 102.756ZM966.937 108.057L968.127 102.074L968.264 102.102C968.254 103.894 969.287 105.262 971.563 105.714C974.525 106.303 976.566 104.65 977.187 101.531C977.807 98.4119 976.518 96.0757 973.497 95.475C971.182 95.0148 969.728 95.7656 969 97.5785L968.804 97.5395L969.338 94.8521L966.612 94.3099L963.995 107.472L966.937 108.057ZM968.548 99.9559L968.579 99.799C968.926 98.0532 970.036 97.6009 971.938 97.9792C973.802 98.3497 974.564 99.1333 974.205 100.938C973.85 102.723 972.842 103.175 970.959 102.801C969.115 102.434 968.212 101.643 968.548 99.9559ZM987.386 108.657L987.913 106.009L986.147 105.658C985.107 105.451 984.785 105.122 984.98 104.141L985.679 100.63L988.856 101.262L989.34 98.8291L986.162 98.1973L986.541 96.2945L983.598 95.7095L983.22 97.6122L981.67 97.3041L981.187 99.7365L982.736 100.045L981.972 103.889C981.48 106.361 982.659 107.717 984.954 108.173L987.386 108.657ZM993.686 110.113C997.041 110.78 999.694 109.228 1000.31 106.129C1000.93 102.99 999.073 100.56 995.719 99.8935C992.364 99.2265 989.714 100.759 989.09 103.898C988.474 106.997 990.332 109.446 993.686 110.113ZM994.205 107.504C992.204 107.107 991.67 106.205 992.013 104.479C992.356 102.753 993.203 102.085 995.204 102.483C997.185 102.877 997.731 103.821 997.388 105.548C997.045 107.274 996.186 107.898 994.205 107.504ZM1009.29 113.012L1011.91 99.8697L1009.22 99.3353C1008.31 100.501 1007.27 100.64 1005.81 100.351L1005.26 100.242L1004.86 102.262L1008.24 102.933L1006.35 112.427L1009.29 113.012ZM1016.71 114.691C1020.49 115.444 1023.2 114.739 1023.72 112.13C1024.12 110.148 1023.02 108.973 1021.25 108.253L1021.29 108.037C1023.12 108.094 1024.29 107.328 1024.6 105.778C1025.02 103.66 1023.28 101.928 1019.38 101.152C1015.52 100.384 1013.23 101.316 1012.81 103.434C1012.5 104.984 1013.31 106.144 1014.98 106.782L1014.93 106.997C1013.16 107.011 1011.56 107.652 1011.17 109.633C1010.65 112.242 1012.86 113.926 1016.71 114.691ZM1018.28 106.703C1016.04 106.259 1015.42 105.687 1015.6 104.765C1015.79 103.823 1016.5 103.516 1018.82 103.977C1021.19 104.449 1021.69 104.997 1021.51 105.939C1021.32 106.861 1020.55 107.156 1018.28 106.703ZM1017.25 111.862C1014.7 111.355 1014.04 110.756 1014.27 109.618C1014.49 108.52 1015.3 108.213 1017.87 108.724C1020.44 109.235 1021.08 109.83 1020.86 110.929C1020.64 112.066 1019.78 112.365 1017.25 111.862ZM1030.13 117.155L1031.45 110.485L1031.74 108.402L1031.96 108.445L1032.32 110.657L1033.89 117.088L1037.46 117.798L1041.38 112.459L1042.55 110.551L1042.77 110.594L1042.26 112.635L1040.93 119.304L1043.88 119.889L1046.49 106.746L1042.49 105.951L1038.22 111.831L1036.41 114.673L1036.19 114.63L1035.57 111.305L1033.78 104.219L1029.8 103.427L1027.18 116.57L1030.13 117.155ZM1050.62 121.434C1053.97 122.1 1056.63 120.548 1057.24 117.449C1057.87 114.31 1056.01 111.881 1052.65 111.214C1049.3 110.547 1046.65 112.079 1046.02 115.218C1045.41 118.317 1047.26 120.767 1050.62 121.434ZM1051.14 118.825C1049.14 118.427 1048.6 117.525 1048.95 115.799C1049.29 114.073 1050.14 113.405 1052.14 113.803C1054.12 114.197 1054.66 115.141 1054.32 116.868C1053.98 118.594 1053.12 119.219 1051.14 118.825ZM1060.41 123.177L1061.4 118.214C1061.73 116.547 1062.55 115.934 1064.41 116.304C1066.21 116.663 1066.73 117.459 1066.42 119.028L1065.39 124.168L1068.34 124.753L1069.55 118.632C1069.99 116.455 1069.05 114.475 1066.37 113.941C1063.8 113.43 1062.31 114.765 1061.73 116.362L1061.55 116.327L1062.15 113.306L1059.42 112.764L1057.47 122.592L1060.41 123.177ZM1076.75 126.425L1077.28 123.777L1075.51 123.426C1074.47 123.219 1074.15 122.89 1074.34 121.91L1075.04 118.398L1078.22 119.03L1078.7 116.598L1075.53 115.966L1075.9 114.063L1072.96 113.478L1072.58 115.381L1071.03 115.073L1070.55 117.505L1072.1 117.813L1071.34 121.658C1070.84 124.13 1072.02 125.485 1074.32 125.942L1076.75 126.425ZM1080.79 127.23L1081.77 122.306C1082.1 120.658 1082.87 119.975 1084.85 120.369C1086.69 120.735 1087.28 121.464 1086.96 123.112L1085.93 128.251L1088.88 128.836L1090.07 122.814C1090.53 120.539 1089.57 118.555 1086.93 118.029C1084.42 117.529 1082.95 118.829 1082.31 120.434L1082.15 120.403L1083.41 114.087L1080.47 113.502L1077.85 126.644L1080.79 127.23ZM1095.28 130.315C1098.33 130.919 1100.39 130.066 1100.76 128.222C1101.08 126.594 1100.28 125.516 1097.71 124.699L1095.66 124.027C1094.39 123.612 1094.16 123.342 1094.26 122.832C1094.39 122.204 1094.81 122.023 1096.28 122.316C1098.09 122.675 1098.4 123.165 1098.24 123.969L1098.22 124.087L1101.16 124.672L1101.17 124.613C1101.65 122.22 1100.06 120.641 1096.85 120.001C1093.47 119.33 1091.73 120.411 1091.38 122.137C1091.06 123.785 1091.98 124.886 1093.9 125.492L1096.6 126.375C1097.72 126.762 1097.99 126.978 1097.88 127.527C1097.76 128.115 1097.34 128.296 1095.77 127.984C1094.1 127.653 1093.6 127.308 1093.77 126.425L1093.81 126.249L1090.87 125.664L1090.86 125.723C1090.4 127.998 1091.97 129.655 1095.28 130.315Z" fill="white"/>
</svg>
