<svg width="60" height="60" viewBox="0 0 60 60" fill="none" xmlns="http://www.w3.org/2000/svg">
<circle cx="30" cy="30" r="30" fill="#FAD76B"/>
<path d="M30 36C30.5967 36 31.169 35.7629 31.591 35.341C32.0129 34.919 32.25 34.3467 32.25 33.75C32.25 33.1533 32.0129 32.581 31.591 32.159C31.169 31.7371 30.5967 31.5 30 31.5C29.4033 31.5 28.831 31.7371 28.409 32.159C27.9871 32.581 27.75 33.1533 27.75 33.75C27.75 34.3467 27.9871 34.919 28.409 35.341C28.831 35.7629 29.4033 36 30 36ZM36.75 25.875C37.3467 25.875 37.919 26.1121 38.341 26.534C38.7629 26.956 39 27.5283 39 28.125V39.375C39 39.9717 38.7629 40.544 38.341 40.966C37.919 41.3879 37.3467 41.625 36.75 41.625H23.25C22.6533 41.625 22.081 41.3879 21.659 40.966C21.2371 40.544 21 39.9717 21 39.375V28.125C21 27.5283 21.2371 26.956 21.659 26.534C22.081 26.1121 22.6533 25.875 23.25 25.875H24.375V23.625C24.375 22.1332 24.9676 20.7024 26.0225 19.6475C27.0774 18.5926 28.5082 18 30 18C30.7387 18 31.4701 18.1455 32.1526 18.4282C32.8351 18.7109 33.4551 19.1252 33.9775 19.6475C34.4998 20.1699 34.9141 20.7899 35.1968 21.4724C35.4795 22.1549 35.625 22.8863 35.625 23.625V25.875H36.75ZM30 20.25C29.1049 20.25 28.2464 20.6056 27.6135 21.2385C26.9806 21.8714 26.625 22.7299 26.625 23.625V25.875H33.375V23.625C33.375 22.7299 33.0194 21.8714 32.3865 21.2385C31.7536 20.6056 30.8951 20.25 30 20.25Z" fill="white"/>
</svg>
