<svg width="1440" height="1287" viewBox="0 0 1440 1287" fill="none" xmlns="http://www.w3.org/2000/svg">
<rect width="1440" height="1287" fill="white"/>
<rect opacity="0.3" x="977" y="220" width="182" height="182" rx="10" fill="#FDE8E8"/>
<rect opacity="0.5" width="182" height="182" rx="10" transform="matrix(-1 0 0 1 462 798)" fill="#FFFBEB"/>
<rect opacity="0.3" x="1247" y="99" width="303" height="303" rx="10" fill="#FDE8E8"/>
<path d="M539.811 842.708H540.634L545.937 851.305L551.88 846.868L545.48 839.102L545.754 838.363L555.446 835.867L553.251 828.841L543.926 832.539L543.286 832.076L543.926 822H536.611L537.16 832.076L536.611 832.539L527.286 828.748L525 835.774L534.6 838.363L534.783 839.102L528.474 846.868L534.417 851.212L539.811 842.708Z" fill="#FEF3C7"/>
<path d="M925.811 439.708H926.634L931.937 448.305L937.88 443.868L931.48 436.102L931.754 435.363L941.446 432.867L939.251 425.841L929.926 429.539L929.286 429.076L929.926 419H922.611L923.16 429.076L922.611 429.539L913.286 425.748L911 432.774L920.6 435.363L920.783 436.102L914.474 443.868L920.417 448.212L925.811 439.708Z" fill="#FEDBCD"/>
<g opacity="0.5">
<path d="M184.132 820.059H186.369L200.786 843.482L216.943 831.393L199.543 810.237L200.289 808.222L226.638 801.422L220.672 782.282L195.318 792.356L193.578 791.096L195.318 763.645H175.432L176.923 791.096L175.432 792.356L150.078 782.03L143.863 801.17L169.963 808.222L170.46 810.237L153.309 831.393L169.466 843.23L184.132 820.059Z" fill="#FDE68A"/>
</g>
<path d="M1248.23 224.196H1250.31L1263.73 245.689L1278.77 234.596L1262.57 215.182L1263.27 213.333L1287.8 207.093L1282.25 189.529L1258.64 198.773L1257.02 197.618L1258.64 172.427H1240.13L1241.51 197.618L1240.13 198.773L1216.52 189.298L1210.73 206.862L1235.03 213.333L1235.5 215.182L1219.53 234.596L1234.57 245.458L1248.23 224.196Z" fill="#FEDBCD"/>
<g clip-path="url(#clip0_721_14102)">
<path d="M81.6222 501.981H82.2394L86.2165 508.319L90.6737 505.047L85.8737 499.323L86.0794 498.778L93.348 496.938L91.7022 491.759L84.708 494.484L84.228 494.144L84.708 486.716H79.2222L79.6337 494.144L79.2222 494.484L72.228 491.69L70.5137 496.87L77.7137 498.778L77.8508 499.323L73.1194 505.047L77.5765 508.25L81.6222 501.981Z" fill="#FEE2E2"/>
</g>
<path d="M306.811 1112.71H307.634L312.937 1121.3L318.88 1116.87L312.48 1109.1L312.754 1108.36L322.446 1105.87L320.251 1098.84L310.926 1102.54L310.286 1102.08L310.926 1092H303.611L304.16 1102.08L303.611 1102.54L294.286 1098.75L292 1105.77L301.6 1108.36L301.783 1109.1L295.474 1116.87L301.417 1121.21L306.811 1112.71Z" fill="#DCFCE7"/>
<defs>
<clipPath id="clip0_721_14102">
<rect width="24" height="23" fill="white" transform="translate(70 486)"/>
</clipPath>
</defs>
</svg>
