<svg width="56" height="50" viewBox="0 0 56 50" fill="none" xmlns="http://www.w3.org/2000/svg">
<rect width="56" height="49.913" rx="9.73913" fill="#F9FAFB"/>
<path d="M27.9341 35.337C26.7357 35.337 25.6028 35.1404 24.5354 34.7472C23.4681 34.3539 22.5037 33.8109 21.6423 33.118L20.2098 34.5506C19.9851 34.7753 19.7229 34.8828 19.4233 34.873C19.1237 34.864 18.8615 34.7472 18.6368 34.5225C18.4121 34.2978 18.2998 34.0307 18.2998 33.7214C18.2998 33.4128 18.4121 33.1461 18.6368 32.9214L20.0413 31.517C19.3484 30.6556 18.8054 29.6864 18.4121 28.6093C18.0189 27.5329 17.8223 26.4049 17.8223 25.2252C17.8223 22.4163 18.8102 20.0288 20.7862 18.0626C22.7614 16.0964 25.144 15.1133 27.9341 15.1133H35.7989C36.4169 15.1133 36.9461 15.3331 37.3865 15.7728C37.8262 16.2132 38.046 16.7424 38.046 17.3604V25.2252C38.046 28.0153 37.0629 30.3983 35.0967 32.3743C33.1305 34.3494 30.743 35.337 27.9341 35.337ZM27.9341 33.09C30.1251 33.09 31.9834 32.3222 33.5092 30.7867C35.0357 29.2512 35.7989 27.3973 35.7989 25.2252V17.3604H27.9341C25.762 17.3604 23.9081 18.1233 22.3726 19.649C20.8371 21.1755 20.0694 23.0343 20.0694 25.2252C20.0694 27.3973 20.8371 29.2512 22.3726 30.7867C23.9081 32.3222 25.762 33.09 27.9341 33.09ZM26.4455 30.7024L32.2598 25.506C32.447 25.3375 32.5032 25.136 32.4283 24.9016C32.3534 24.6679 32.1849 24.5323 31.9227 24.4949L27.3724 24.0454L30.097 20.3097C30.1719 20.216 30.2044 20.1175 30.1947 20.0142C30.1857 19.9116 30.1438 19.8134 30.0689 19.7198C29.9752 19.6262 29.8678 19.5794 29.7464 19.5794C29.6243 19.5794 29.5165 19.6262 29.4228 19.7198L23.6366 24.9162C23.4493 25.0847 23.3932 25.2858 23.4681 25.5195C23.543 25.754 23.7115 25.8899 23.9737 25.9274L28.524 26.3768L25.7713 30.1126C25.7151 30.2062 25.6871 30.3047 25.6871 30.4081C25.6871 30.5107 25.7339 30.6088 25.8275 30.7024C25.9211 30.7961 26.0241 30.8429 26.1365 30.8429C26.2488 30.8429 26.3518 30.7961 26.4455 30.7024Z" fill="#092767"/>
</svg>
