<svg width="30" height="30" viewBox="0 0 30 30" fill="none" xmlns="http://www.w3.org/2000/svg">
<g clip-path="url(#clip0_47_13076)">
<path d="M29.5 15C29.5 23.0081 23.0081 29.5 15 29.5C6.99187 29.5 0.5 23.0081 0.5 15C0.5 6.99187 6.99187 0.5 15 0.5C23.0081 0.5 29.5 6.99187 29.5 15Z" stroke="white"/>
<path d="M24.187 10.78C23.5442 11.065 22.8527 11.2578 22.1275 11.3439C22.8679 10.9003 23.4361 10.1984 23.7043 9.36067C23.0115 9.77165 22.2438 10.0698 21.4275 10.2305C20.7735 9.53394 19.8416 9.09863 18.8098 9.09863C16.83 9.09863 15.2243 10.7043 15.2243 12.6841C15.2243 12.9651 15.2562 13.2386 15.3177 13.5012C12.3379 13.3517 9.6958 11.9244 7.92729 9.75454C7.61872 10.284 7.44171 10.9003 7.44171 11.5573C7.44171 12.8009 8.07516 13.8988 9.03669 14.5416C8.44923 14.5232 7.89601 14.3619 7.41283 14.0927C7.41257 14.1079 7.41257 14.1231 7.41257 14.1381C7.41257 15.8753 8.64897 17.3243 10.2889 17.6535C9.98833 17.7358 9.67094 17.7794 9.34445 17.7794C9.11289 17.7794 8.88856 17.7572 8.66983 17.7155C9.126 19.1396 10.4498 20.1763 12.0191 20.2054C10.7918 21.1672 9.24605 21.7403 7.56578 21.7403C7.277 21.7403 6.99089 21.7234 6.71094 21.69C8.29682 22.7077 10.1819 23.301 12.2066 23.301C18.8015 23.301 22.408 17.8377 22.408 13.0993C22.408 12.944 22.4045 12.7891 22.3976 12.6357C23.0987 12.1303 23.7065 11.499 24.187 10.78Z" fill="#F1F2F2"/>
</g>
<defs>
<clipPath id="clip0_47_13076">
<rect width="30" height="30" fill="white"/>
</clipPath>
</defs>
</svg>
