<svg width="681" height="394" viewBox="0 0 681 394" fill="none" xmlns="http://www.w3.org/2000/svg">
<g clip-path="url(#clip0_726_14100)">
<rect width="681" height="394" rx="10" fill="#F8B812"/>
<path d="M843 411.5C843 372.822 833.898 334.687 816.431 300.179C798.964 265.67 773.622 235.756 742.453 212.854C711.284 189.953 675.163 174.708 637.012 168.352C598.86 161.995 559.748 164.706 522.837 176.264C485.927 187.822 452.255 207.904 424.542 234.885C396.83 261.866 375.856 294.99 363.316 331.579C350.776 368.167 347.021 407.193 352.356 445.501C357.691 483.809 371.966 520.324 394.026 552.093L509.651 471.806C500.188 458.179 494.066 442.516 491.777 426.084C489.489 409.652 491.099 392.913 496.478 377.219C501.857 361.524 510.854 347.316 522.741 335.743C534.627 324.17 549.071 315.556 564.903 310.598C580.735 305.64 597.512 304.478 613.877 307.204C630.242 309.931 645.735 316.47 659.105 326.293C672.474 336.116 683.345 348.948 690.837 363.75C698.33 378.552 702.234 394.91 702.234 411.5H843Z" fill="url(#paint0_linear_726_14100)"/>
</g>
<defs>
<linearGradient id="paint0_linear_726_14100" x1="596.5" y1="165" x2="596.5" y2="658" gradientUnits="userSpaceOnUse">
<stop stop-color="white" stop-opacity="0.13"/>
<stop offset="1" stop-color="white" stop-opacity="0"/>
</linearGradient>
<clipPath id="clip0_726_14100">
<rect width="681" height="394" fill="white"/>
</clipPath>
</defs>
</svg>
